<?xml version="1.0" encoding="UTF-8"?>
<svg id="Layer_1" data-name="Layer 1" xmlns="http://www.w3.org/2000/svg" viewBox="0 0 1568.05 883.06">
  <defs>
    <style>
      .cls-1 {
        letter-spacing: -.02em;
      }

      .cls-2 {
        letter-spacing: -.02em;
      }

      .cls-3 {
        letter-spacing: 0em;
      }

      .cls-4 {
        letter-spacing: -.03em;
      }

      .cls-5 {
        letter-spacing: -.02em;
      }

      .cls-6 {
        fill: none;
        stroke: #fff;
        stroke-miterlimit: 10;
        stroke-width: .21px;
      }

      .cls-7 {
        letter-spacing: 0em;
      }

      .cls-8 {
        fill: #f2f2f2;
      }

      .cls-9 {
        fill: #fc3b2b;
      }

      .cls-10, .cls-11 {
        fill: red;
      }

      .cls-12 {
        fill: #1d98ca;
      }

      .cls-13, .cls-14, .cls-15 {
        fill: #29abe2;
      }

      .cls-16, .cls-14 {
        letter-spacing: -.01em;
      }

      .cls-17 {
        font-family: WRCCleanRoman2022, 'WRC Clean Roman 2022';
        font-size: 36px;
      }

      .cls-18 {
        letter-spacing: 0em;
      }

      .cls-19 {
        letter-spacing: -.02em;
      }

      .cls-20 {
        font-size: 60px;
      }

      .cls-20, .cls-21 {
        font-family: WRCCleanBold2022, 'WRC Clean Bold 2022';
      }

      .cls-22 {
        letter-spacing: 0em;
      }

      .cls-23 {
        letter-spacing: -.03em;
      }

      .cls-24 {
        letter-spacing: -.01em;
      }

      .cls-25, .cls-15 {
        letter-spacing: 0em;
      }

      .cls-26 {
        letter-spacing: -.02em;
      }

      .cls-27 {
        letter-spacing: 0em;
      }

      .cls-28 {
        letter-spacing: -.02em;
      }

      .cls-29 {
        letter-spacing: -.02em;
      }

      .cls-30 {
        letter-spacing: -.03em;
      }

      .cls-11 {
        letter-spacing: 0em;
      }

      .cls-21 {
        fill: #999;
        font-size: 125px;
      }

      .cls-31 {
        letter-spacing: -.03em;
      }
    </style>
  </defs>
  <text class="cls-20" transform="translate(79.33 52.53)"><tspan class="cls-10" x="0" y="0">L</tspan><tspan class="cls-11" x="34.31" y="0">o</tspan><tspan class="cls-10" x="68.5" y="0">eb</tspan><tspan x="136.11" y="0" xml:space="preserve"> is mo</tspan><tspan class="cls-2" x="303.87" y="0">r</tspan><tspan x="329.09" y="0">e li</tspan><tspan class="cls-2" x="415.2" y="0">k</tspan><tspan x="449.12" y="0">e</tspan><tspan class="cls-3" x="481.93" y="0">l</tspan><tspan x="500.21" y="0">y </tspan><tspan class="cls-5" x="549.87" y="0">t</tspan><tspan x="573.05" y="0">o </tspan><tspan class="cls-2" x="624.35" y="0">r</tspan><tspan x="649.57" y="0">eti</tspan><tspan class="cls-2" x="724.8" y="0">r</tspan><tspan x="750.03" y="0">e </tspan><tspan class="cls-16" x="799.63" y="0">f</tspan><tspan class="cls-30" x="822.04" y="0">r</tspan><tspan x="846.91" y="0">om </tspan><tspan class="cls-23" x="949.39" y="0">r</tspan><tspan x="974.33" y="0">a</tspan><tspan class="cls-2" x="1007.64" y="0">c</tspan><tspan x="1037.02" y="0">es </tspan><tspan class="cls-18" x="1116.91" y="0">t</tspan><tspan x="1140.94" y="0">han </tspan><tspan class="cls-13" x="1260.35" y="0">Ogi</tspan><tspan class="cls-15" x="1350.41" y="0">e</tspan><tspan class="cls-14" x="1383.57" y="0">r</tspan></text>
  <text class="cls-17" transform="translate(184.58 135.83)"><tspan class="cls-4" x="0" y="0">P</tspan><tspan class="cls-25" x="20.92" y="0">e</tspan><tspan class="cls-19" x="39.81" y="0">rc</tspan><tspan x="69.94" y="0">en</tspan><tspan class="cls-24" x="108.32" y="0">t</tspan><tspan x="121.62" y="0">a</tspan><tspan class="cls-7" x="140.59" y="0">g</tspan><tspan x="158.82" y="0">e of </tspan><tspan class="cls-19" x="230.59" y="0">r</tspan><tspan x="244.16" y="0">eti</tspan><tspan class="cls-19" x="285.45" y="0">r</tspan><tspan x="299.02" y="0">ed </tspan><tspan class="cls-31" x="347.64" y="0">r</tspan><tspan x="361.04" y="0">a</tspan><tspan class="cls-19" x="380" y="0">c</tspan><tspan x="396.56" y="0">es </tspan><tspan class="cls-28" x="442.49" y="0">c</tspan><tspan x="459.23" y="0">ompa</tspan><tspan class="cls-27" x="548.1" y="0">r</tspan><tspan x="562.36" y="0">i</tspan><tspan class="cls-7" x="571.15" y="0">n</tspan><tspan x="590.52" y="0">g </tspan><tspan class="cls-1" x="619.14" y="0">t</tspan><tspan x="632.3" y="0">o all </tspan><tspan class="cls-22" x="712.05" y="0">t</tspan><tspan x="725.73" y="0">he </tspan><tspan class="cls-31" x="774.35" y="0">r</tspan><tspan x="787.75" y="0">a</tspan><tspan class="cls-19" x="806.71" y="0">c</tspan><tspan x="823.27" y="0">es </tspan><tspan class="cls-7" x="869.2" y="0">e</tspan><tspan x="887.57" y="0">ach d</tspan><tspan class="cls-27" x="973.76" y="0">r</tspan><tspan x="988.01" y="0">i</tspan><tspan class="cls-26" x="996.8" y="0">v</tspan><tspan class="cls-25" x="1014.8" y="0">e</tspan><tspan class="cls-24" x="1033.7" y="0">r</tspan><tspan x="1047.62" y="0"> </tspan><tspan class="cls-22" x="1057.69" y="0">a</tspan><tspan class="cls-29" x="1076.52" y="0">t</tspan><tspan class="cls-24" x="1089.76" y="0">t</tspan><tspan x="1103.06" y="0">ended</tspan></text>
  <g>
    <rect class="cls-9" x="26.72" y="200.7" width="68.19" height="68.19"/>
    <rect class="cls-6" x="26.72" y="200.7" width="68.19" height="68.19"/>
    <rect class="cls-8" x="94.89" y="200.7" width="68.19" height="68.19"/>
    <rect class="cls-6" x="94.89" y="200.7" width="68.19" height="68.19"/>
    <rect class="cls-8" x="163.08" y="200.7" width="68.19" height="68.19"/>
    <rect class="cls-6" x="163.08" y="200.7" width="68.19" height="68.19"/>
    <rect class="cls-8" x="231.27" y="200.7" width="68.19" height="68.19"/>
    <rect class="cls-6" x="231.27" y="200.7" width="68.19" height="68.19"/>
    <rect class="cls-8" x="299.44" y="200.7" width="68.19" height="68.19"/>
    <rect class="cls-6" x="299.44" y="200.7" width="68.19" height="68.19"/>
    <rect class="cls-8" x="367.63" y="200.7" width="68.19" height="68.19"/>
    <rect class="cls-6" x="367.63" y="200.7" width="68.19" height="68.19"/>
    <rect class="cls-8" x="435.82" y="200.7" width="68.19" height="68.19"/>
    <rect class="cls-6" x="435.82" y="200.7" width="68.19" height="68.19"/>
    <rect class="cls-8" x="503.99" y="200.7" width="68.19" height="68.19"/>
    <rect class="cls-6" x="503.99" y="200.7" width="68.19" height="68.19"/>
    <rect class="cls-8" x="572.17" y="200.7" width="68.19" height="68.19"/>
    <rect class="cls-6" x="572.17" y="200.7" width="68.19" height="68.19"/>
    <rect class="cls-8" x="640.36" y="200.7" width="68.19" height="68.19"/>
    <rect class="cls-6" x="640.36" y="200.7" width="68.19" height="68.19"/>
    <rect class="cls-9" x="26.72" y="268.89" width="68.19" height="68.19"/>
    <rect class="cls-6" x="26.72" y="268.89" width="68.19" height="68.19"/>
    <rect class="cls-8" x="94.89" y="268.89" width="68.19" height="68.19"/>
    <rect class="cls-6" x="94.89" y="268.89" width="68.19" height="68.19"/>
    <rect class="cls-8" x="163.08" y="268.89" width="68.19" height="68.19"/>
    <rect class="cls-6" x="163.08" y="268.89" width="68.19" height="68.19"/>
    <rect class="cls-8" x="231.27" y="268.89" width="68.19" height="68.19"/>
    <rect class="cls-6" x="231.27" y="268.89" width="68.19" height="68.19"/>
    <rect class="cls-8" x="299.44" y="268.89" width="68.19" height="68.19"/>
    <rect class="cls-6" x="299.44" y="268.89" width="68.19" height="68.19"/>
    <rect class="cls-8" x="367.63" y="268.89" width="68.19" height="68.19"/>
    <rect class="cls-6" x="367.63" y="268.89" width="68.19" height="68.19"/>
    <rect class="cls-8" x="435.82" y="268.89" width="68.19" height="68.19"/>
    <rect class="cls-6" x="435.82" y="268.89" width="68.19" height="68.19"/>
    <rect class="cls-8" x="503.99" y="268.89" width="68.19" height="68.19"/>
    <rect class="cls-6" x="503.99" y="268.89" width="68.19" height="68.19"/>
    <rect class="cls-8" x="572.17" y="268.89" width="68.19" height="68.19"/>
    <rect class="cls-6" x="572.17" y="268.89" width="68.19" height="68.19"/>
    <rect class="cls-8" x="640.36" y="268.89" width="68.19" height="68.19"/>
    <rect class="cls-6" x="640.36" y="268.89" width="68.19" height="68.19"/>
    <rect class="cls-9" x="26.72" y="337.07" width="68.19" height="68.19"/>
    <rect class="cls-6" x="26.72" y="337.07" width="68.19" height="68.19"/>
    <rect class="cls-8" x="94.89" y="337.07" width="68.19" height="68.19"/>
    <rect class="cls-6" x="94.89" y="337.07" width="68.19" height="68.19"/>
    <rect class="cls-8" x="163.08" y="337.07" width="68.19" height="68.19"/>
    <rect class="cls-6" x="163.08" y="337.07" width="68.19" height="68.19"/>
    <rect class="cls-8" x="231.27" y="337.07" width="68.19" height="68.19"/>
    <rect class="cls-6" x="231.27" y="337.07" width="68.19" height="68.19"/>
    <rect class="cls-8" x="299.44" y="337.07" width="68.19" height="68.19"/>
    <rect class="cls-6" x="299.44" y="337.07" width="68.19" height="68.19"/>
    <rect class="cls-8" x="367.63" y="337.07" width="68.19" height="68.19"/>
    <rect class="cls-6" x="367.63" y="337.07" width="68.19" height="68.19"/>
    <rect class="cls-8" x="435.82" y="337.07" width="68.19" height="68.19"/>
    <rect class="cls-6" x="435.82" y="337.07" width="68.19" height="68.19"/>
    <rect class="cls-8" x="503.99" y="337.07" width="68.19" height="68.19"/>
    <rect class="cls-6" x="503.99" y="337.07" width="68.19" height="68.19"/>
    <rect class="cls-8" x="572.17" y="337.07" width="68.19" height="68.19"/>
    <rect class="cls-6" x="572.17" y="337.07" width="68.19" height="68.19"/>
    <rect class="cls-8" x="640.36" y="337.07" width="68.19" height="68.19"/>
    <rect class="cls-6" x="640.36" y="337.07" width="68.19" height="68.19"/>
    <rect class="cls-9" x="26.72" y="405.25" width="68.19" height="68.19"/>
    <rect class="cls-6" x="26.72" y="405.25" width="68.19" height="68.19"/>
    <rect class="cls-8" x="94.89" y="405.25" width="68.19" height="68.19"/>
    <rect class="cls-6" x="94.89" y="405.25" width="68.19" height="68.19"/>
    <rect class="cls-8" x="163.08" y="405.25" width="68.19" height="68.19"/>
    <rect class="cls-6" x="163.08" y="405.25" width="68.19" height="68.19"/>
    <rect class="cls-8" x="231.27" y="405.25" width="68.19" height="68.19"/>
    <rect class="cls-6" x="231.27" y="405.25" width="68.19" height="68.19"/>
    <rect class="cls-8" x="299.44" y="405.25" width="68.19" height="68.19"/>
    <rect class="cls-6" x="299.44" y="405.25" width="68.19" height="68.19"/>
    <rect class="cls-8" x="367.63" y="405.25" width="68.19" height="68.19"/>
    <rect class="cls-6" x="367.63" y="405.25" width="68.19" height="68.19"/>
    <rect class="cls-8" x="435.82" y="405.25" width="68.19" height="68.19"/>
    <rect class="cls-6" x="435.82" y="405.25" width="68.19" height="68.19"/>
    <rect class="cls-8" x="503.99" y="405.25" width="68.19" height="68.19"/>
    <rect class="cls-6" x="503.99" y="405.25" width="68.19" height="68.19"/>
    <rect class="cls-8" x="572.17" y="405.25" width="68.19" height="68.19"/>
    <rect class="cls-6" x="572.17" y="405.25" width="68.19" height="68.19"/>
    <rect class="cls-8" x="640.36" y="405.25" width="68.19" height="68.19"/>
    <rect class="cls-6" x="640.36" y="405.25" width="68.19" height="68.19"/>
    <rect class="cls-9" x="26.72" y="473.43" width="68.19" height="68.19"/>
    <rect class="cls-6" x="26.72" y="473.43" width="68.19" height="68.19"/>
    <rect class="cls-8" x="94.89" y="473.43" width="68.19" height="68.19"/>
    <rect class="cls-6" x="94.89" y="473.43" width="68.19" height="68.19"/>
    <rect class="cls-8" x="163.08" y="473.43" width="68.19" height="68.19"/>
    <rect class="cls-6" x="163.08" y="473.43" width="68.19" height="68.19"/>
    <rect class="cls-8" x="231.27" y="473.43" width="68.19" height="68.19"/>
    <rect class="cls-6" x="231.27" y="473.43" width="68.19" height="68.19"/>
    <rect class="cls-8" x="299.44" y="473.43" width="68.19" height="68.19"/>
    <rect class="cls-6" x="299.44" y="473.43" width="68.19" height="68.19"/>
    <rect class="cls-8" x="367.63" y="473.43" width="68.19" height="68.19"/>
    <rect class="cls-6" x="367.63" y="473.43" width="68.19" height="68.19"/>
    <rect class="cls-8" x="435.82" y="473.43" width="68.19" height="68.19"/>
    <rect class="cls-6" x="435.82" y="473.43" width="68.19" height="68.19"/>
    <rect class="cls-8" x="503.99" y="473.43" width="68.19" height="68.19"/>
    <rect class="cls-6" x="503.99" y="473.43" width="68.19" height="68.19"/>
    <rect class="cls-8" x="572.17" y="473.43" width="68.19" height="68.19"/>
    <rect class="cls-6" x="572.17" y="473.43" width="68.19" height="68.19"/>
    <rect class="cls-8" x="640.36" y="473.43" width="68.19" height="68.19"/>
    <rect class="cls-6" x="640.36" y="473.43" width="68.19" height="68.19"/>
    <rect class="cls-9" x="26.72" y="541.62" width="68.19" height="68.19"/>
    <rect class="cls-6" x="26.72" y="541.62" width="68.19" height="68.19"/>
    <rect class="cls-8" x="94.89" y="541.62" width="68.19" height="68.19"/>
    <rect class="cls-6" x="94.89" y="541.62" width="68.19" height="68.19"/>
    <rect class="cls-8" x="163.08" y="541.62" width="68.19" height="68.19"/>
    <rect class="cls-6" x="163.08" y="541.62" width="68.19" height="68.19"/>
    <rect class="cls-8" x="231.27" y="541.62" width="68.19" height="68.19"/>
    <rect class="cls-6" x="231.27" y="541.62" width="68.19" height="68.19"/>
    <rect class="cls-8" x="299.44" y="541.62" width="68.19" height="68.19"/>
    <rect class="cls-6" x="299.44" y="541.62" width="68.19" height="68.19"/>
    <rect class="cls-8" x="367.63" y="541.62" width="68.19" height="68.19"/>
    <rect class="cls-6" x="367.63" y="541.62" width="68.19" height="68.19"/>
    <rect class="cls-8" x="435.82" y="541.62" width="68.19" height="68.19"/>
    <rect class="cls-6" x="435.82" y="541.62" width="68.19" height="68.19"/>
    <rect class="cls-8" x="503.99" y="541.62" width="68.19" height="68.19"/>
    <rect class="cls-6" x="503.99" y="541.62" width="68.19" height="68.19"/>
    <rect class="cls-8" x="572.17" y="541.62" width="68.19" height="68.19"/>
    <rect class="cls-6" x="572.17" y="541.62" width="68.19" height="68.19"/>
    <rect class="cls-8" x="640.36" y="541.62" width="68.19" height="68.19"/>
    <rect class="cls-6" x="640.36" y="541.62" width="68.19" height="68.19"/>
    <rect class="cls-9" x="26.72" y="609.79" width="68.19" height="68.19"/>
    <rect class="cls-6" x="26.72" y="609.79" width="68.19" height="68.19"/>
    <rect class="cls-8" x="94.89" y="609.79" width="68.19" height="68.19"/>
    <rect class="cls-6" x="94.89" y="609.79" width="68.19" height="68.19"/>
    <rect class="cls-8" x="163.08" y="609.79" width="68.19" height="68.19"/>
    <rect class="cls-6" x="163.08" y="609.79" width="68.19" height="68.19"/>
    <rect class="cls-8" x="231.27" y="609.79" width="68.19" height="68.19"/>
    <rect class="cls-6" x="231.27" y="609.79" width="68.19" height="68.19"/>
    <rect class="cls-8" x="299.44" y="609.79" width="68.19" height="68.19"/>
    <rect class="cls-6" x="299.44" y="609.79" width="68.19" height="68.19"/>
    <rect class="cls-8" x="367.63" y="609.79" width="68.19" height="68.19"/>
    <rect class="cls-6" x="367.63" y="609.79" width="68.19" height="68.19"/>
    <rect class="cls-8" x="435.82" y="609.79" width="68.19" height="68.19"/>
    <rect class="cls-6" x="435.82" y="609.79" width="68.19" height="68.19"/>
    <rect class="cls-8" x="503.99" y="609.79" width="68.19" height="68.19"/>
    <rect class="cls-6" x="503.99" y="609.79" width="68.19" height="68.19"/>
    <rect class="cls-8" x="572.17" y="609.79" width="68.19" height="68.19"/>
    <rect class="cls-6" x="572.17" y="609.79" width="68.19" height="68.19"/>
    <rect class="cls-8" x="640.36" y="609.79" width="68.19" height="68.19"/>
    <rect class="cls-6" x="640.36" y="609.79" width="68.19" height="68.19"/>
    <rect class="cls-9" x="26.72" y="677.98" width="68.19" height="68.19"/>
    <rect class="cls-6" x="26.72" y="677.98" width="68.19" height="68.19"/>
    <rect class="cls-9" x="94.89" y="677.98" width="68.19" height="68.19"/>
    <rect class="cls-6" x="94.89" y="677.98" width="68.19" height="68.19"/>
    <rect class="cls-8" x="163.08" y="677.98" width="68.19" height="68.19"/>
    <rect class="cls-6" x="163.08" y="677.98" width="68.19" height="68.19"/>
    <rect class="cls-8" x="231.27" y="677.98" width="68.19" height="68.19"/>
    <rect class="cls-6" x="231.27" y="677.98" width="68.19" height="68.19"/>
    <rect class="cls-8" x="299.44" y="677.98" width="68.19" height="68.19"/>
    <rect class="cls-6" x="299.44" y="677.98" width="68.19" height="68.19"/>
    <rect class="cls-8" x="367.63" y="677.98" width="68.19" height="68.19"/>
    <rect class="cls-6" x="367.63" y="677.98" width="68.19" height="68.19"/>
    <rect class="cls-8" x="435.82" y="677.98" width="68.19" height="68.19"/>
    <rect class="cls-6" x="435.82" y="677.98" width="68.19" height="68.19"/>
    <rect class="cls-8" x="503.99" y="677.98" width="68.19" height="68.19"/>
    <rect class="cls-6" x="503.99" y="677.98" width="68.19" height="68.19"/>
    <rect class="cls-8" x="572.17" y="677.98" width="68.19" height="68.19"/>
    <rect class="cls-6" x="572.17" y="677.98" width="68.19" height="68.19"/>
    <rect class="cls-8" x="640.36" y="677.98" width="68.19" height="68.19"/>
    <rect class="cls-6" x="640.36" y="677.98" width="68.19" height="68.19"/>
    <rect class="cls-9" x="26.72" y="746.17" width="68.19" height="68.19"/>
    <rect class="cls-6" x="26.72" y="746.17" width="68.19" height="68.19"/>
    <rect class="cls-9" x="94.89" y="746.17" width="68.19" height="68.19"/>
    <rect class="cls-6" x="94.89" y="746.17" width="68.19" height="68.19"/>
    <rect class="cls-8" x="163.08" y="746.17" width="68.19" height="68.19"/>
    <rect class="cls-6" x="163.08" y="746.17" width="68.19" height="68.19"/>
    <rect class="cls-8" x="231.27" y="746.17" width="68.19" height="68.19"/>
    <rect class="cls-6" x="231.27" y="746.17" width="68.19" height="68.19"/>
    <rect class="cls-8" x="299.44" y="746.17" width="68.19" height="68.19"/>
    <rect class="cls-6" x="299.44" y="746.17" width="68.19" height="68.19"/>
    <rect class="cls-8" x="367.63" y="746.17" width="68.19" height="68.19"/>
    <rect class="cls-6" x="367.63" y="746.17" width="68.19" height="68.19"/>
    <rect class="cls-8" x="435.82" y="746.17" width="68.19" height="68.19"/>
    <rect class="cls-6" x="435.82" y="746.17" width="68.19" height="68.19"/>
    <rect class="cls-8" x="503.99" y="746.17" width="68.19" height="68.19"/>
    <rect class="cls-6" x="503.99" y="746.17" width="68.19" height="68.19"/>
    <rect class="cls-8" x="572.17" y="746.17" width="68.19" height="68.19"/>
    <rect class="cls-6" x="572.17" y="746.17" width="68.19" height="68.19"/>
    <rect class="cls-8" x="640.36" y="746.17" width="68.19" height="68.19"/>
    <rect class="cls-6" x="640.36" y="746.17" width="68.19" height="68.19"/>
    <rect class="cls-9" x="26.72" y="814.34" width="68.19" height="68.19"/>
    <rect class="cls-6" x="26.72" y="814.34" width="68.19" height="68.19"/>
    <rect class="cls-9" x="94.89" y="814.34" width="68.19" height="68.19"/>
    <rect class="cls-6" x="94.89" y="814.34" width="68.19" height="68.19"/>
    <rect class="cls-8" x="163.08" y="814.34" width="68.19" height="68.19"/>
    <rect class="cls-6" x="163.08" y="814.34" width="68.19" height="68.19"/>
    <rect class="cls-8" x="231.27" y="814.34" width="68.19" height="68.19"/>
    <rect class="cls-6" x="231.27" y="814.34" width="68.19" height="68.19"/>
    <rect class="cls-8" x="299.44" y="814.34" width="68.19" height="68.19"/>
    <rect class="cls-6" x="299.44" y="814.34" width="68.19" height="68.19"/>
    <rect class="cls-8" x="367.63" y="814.34" width="68.19" height="68.19"/>
    <rect class="cls-6" x="367.63" y="814.34" width="68.19" height="68.19"/>
    <rect class="cls-8" x="435.82" y="814.34" width="68.19" height="68.19"/>
    <rect class="cls-6" x="435.82" y="814.34" width="68.19" height="68.19"/>
    <rect class="cls-8" x="503.99" y="814.34" width="68.19" height="68.19"/>
    <rect class="cls-6" x="503.99" y="814.34" width="68.19" height="68.19"/>
    <rect class="cls-8" x="572.17" y="814.34" width="68.19" height="68.19"/>
    <rect class="cls-6" x="572.17" y="814.34" width="68.19" height="68.19"/>
    <rect class="cls-8" x="640.36" y="814.34" width="68.19" height="68.19"/>
    <rect class="cls-6" x="640.36" y="814.34" width="68.19" height="68.19"/>
    <text class="cls-21" transform="translate(215.22 561.09)"><tspan x="0" y="0">13%</tspan></text>
  </g>
  <g>
    <rect class="cls-12" x="864.88" y="814.77" width="68.19" height="68.19"/>
    <rect class="cls-6" x="864.88" y="814.77" width="68.19" height="68.19"/>
    <rect class="cls-8" x="933.05" y="814.77" width="68.19" height="68.19"/>
    <rect class="cls-6" x="933.05" y="814.77" width="68.19" height="68.19"/>
    <rect class="cls-8" x="1001.24" y="814.77" width="68.19" height="68.19"/>
    <rect class="cls-6" x="1001.24" y="814.77" width="68.19" height="68.19"/>
    <rect class="cls-8" x="1069.43" y="814.77" width="68.19" height="68.19"/>
    <rect class="cls-6" x="1069.43" y="814.77" width="68.19" height="68.19"/>
    <rect class="cls-8" x="1137.6" y="814.77" width="68.19" height="68.19"/>
    <rect class="cls-6" x="1137.6" y="814.77" width="68.19" height="68.19"/>
    <rect class="cls-8" x="1205.79" y="814.77" width="68.19" height="68.19"/>
    <rect class="cls-6" x="1205.79" y="814.77" width="68.19" height="68.19"/>
    <rect class="cls-8" x="1273.98" y="814.77" width="68.19" height="68.19"/>
    <rect class="cls-6" x="1273.98" y="814.77" width="68.19" height="68.19"/>
    <rect class="cls-8" x="1342.15" y="814.77" width="68.19" height="68.19"/>
    <rect class="cls-6" x="1342.15" y="814.77" width="68.19" height="68.19"/>
    <rect class="cls-8" x="1410.34" y="814.77" width="68.19" height="68.19"/>
    <rect class="cls-6" x="1410.34" y="814.77" width="68.19" height="68.19"/>
    <rect class="cls-8" x="1478.52" y="814.77" width="68.19" height="68.19"/>
    <rect class="cls-6" x="1478.52" y="814.77" width="68.19" height="68.19"/>
    <rect class="cls-12" x="864.88" y="746.6" width="68.19" height="68.19"/>
    <rect class="cls-6" x="864.88" y="746.6" width="68.19" height="68.19"/>
    <rect class="cls-8" x="933.05" y="746.6" width="68.19" height="68.19"/>
    <rect class="cls-6" x="933.05" y="746.6" width="68.19" height="68.19"/>
    <rect class="cls-8" x="1001.24" y="746.6" width="68.19" height="68.19"/>
    <rect class="cls-6" x="1001.24" y="746.6" width="68.19" height="68.19"/>
    <rect class="cls-8" x="1069.43" y="746.6" width="68.19" height="68.19"/>
    <rect class="cls-6" x="1069.43" y="746.6" width="68.19" height="68.19"/>
    <rect class="cls-8" x="1137.6" y="746.6" width="68.19" height="68.19"/>
    <rect class="cls-6" x="1137.6" y="746.6" width="68.19" height="68.19"/>
    <rect class="cls-8" x="1205.79" y="746.6" width="68.19" height="68.19"/>
    <rect class="cls-6" x="1205.79" y="746.6" width="68.19" height="68.19"/>
    <rect class="cls-8" x="1273.98" y="746.6" width="68.19" height="68.19"/>
    <rect class="cls-6" x="1273.98" y="746.6" width="68.19" height="68.19"/>
    <rect class="cls-8" x="1342.15" y="746.6" width="68.19" height="68.19"/>
    <rect class="cls-6" x="1342.15" y="746.6" width="68.19" height="68.19"/>
    <rect class="cls-8" x="1410.34" y="746.6" width="68.19" height="68.19"/>
    <rect class="cls-6" x="1410.34" y="746.6" width="68.19" height="68.19"/>
    <rect class="cls-8" x="1478.52" y="746.6" width="68.19" height="68.19"/>
    <rect class="cls-6" x="1478.52" y="746.6" width="68.19" height="68.19"/>
    <rect class="cls-12" x="864.88" y="678.41" width="68.19" height="68.19"/>
    <rect class="cls-6" x="864.88" y="678.41" width="68.19" height="68.19"/>
    <rect class="cls-8" x="933.05" y="678.41" width="68.19" height="68.19"/>
    <rect class="cls-6" x="933.05" y="678.41" width="68.19" height="68.19"/>
    <rect class="cls-8" x="1001.24" y="678.41" width="68.19" height="68.19"/>
    <rect class="cls-6" x="1001.24" y="678.41" width="68.19" height="68.19"/>
    <rect class="cls-8" x="1069.43" y="678.41" width="68.19" height="68.19"/>
    <rect class="cls-6" x="1069.43" y="678.41" width="68.19" height="68.19"/>
    <rect class="cls-8" x="1137.6" y="678.41" width="68.19" height="68.19"/>
    <rect class="cls-6" x="1137.6" y="678.41" width="68.19" height="68.19"/>
    <rect class="cls-8" x="1205.79" y="678.41" width="68.19" height="68.19"/>
    <rect class="cls-6" x="1205.79" y="678.41" width="68.19" height="68.19"/>
    <rect class="cls-8" x="1273.98" y="678.41" width="68.19" height="68.19"/>
    <rect class="cls-6" x="1273.98" y="678.41" width="68.19" height="68.19"/>
    <rect class="cls-8" x="1342.15" y="678.41" width="68.19" height="68.19"/>
    <rect class="cls-6" x="1342.15" y="678.41" width="68.19" height="68.19"/>
    <rect class="cls-8" x="1410.34" y="678.41" width="68.19" height="68.19"/>
    <rect class="cls-6" x="1410.34" y="678.41" width="68.19" height="68.19"/>
    <rect class="cls-8" x="1478.52" y="678.41" width="68.19" height="68.19"/>
    <rect class="cls-6" x="1478.52" y="678.41" width="68.19" height="68.19"/>
    <rect class="cls-12" x="864.88" y="610.22" width="68.19" height="68.19"/>
    <rect class="cls-6" x="864.88" y="610.22" width="68.19" height="68.19"/>
    <rect class="cls-8" x="933.05" y="610.22" width="68.19" height="68.19"/>
    <rect class="cls-6" x="933.05" y="610.22" width="68.19" height="68.19"/>
    <rect class="cls-8" x="1001.24" y="610.22" width="68.19" height="68.19"/>
    <rect class="cls-6" x="1001.24" y="610.22" width="68.19" height="68.19"/>
    <rect class="cls-8" x="1069.43" y="610.22" width="68.19" height="68.19"/>
    <rect class="cls-6" x="1069.43" y="610.22" width="68.19" height="68.19"/>
    <rect class="cls-8" x="1137.6" y="610.22" width="68.19" height="68.19"/>
    <rect class="cls-6" x="1137.6" y="610.22" width="68.19" height="68.19"/>
    <rect class="cls-8" x="1205.79" y="610.22" width="68.19" height="68.19"/>
    <rect class="cls-6" x="1205.79" y="610.22" width="68.19" height="68.19"/>
    <rect class="cls-8" x="1273.98" y="610.22" width="68.19" height="68.19"/>
    <rect class="cls-6" x="1273.98" y="610.22" width="68.19" height="68.19"/>
    <rect class="cls-8" x="1342.15" y="610.22" width="68.19" height="68.19"/>
    <rect class="cls-6" x="1342.15" y="610.22" width="68.19" height="68.19"/>
    <rect class="cls-8" x="1410.34" y="610.22" width="68.19" height="68.19"/>
    <rect class="cls-6" x="1410.34" y="610.22" width="68.19" height="68.19"/>
    <rect class="cls-8" x="1478.52" y="610.22" width="68.19" height="68.19"/>
    <rect class="cls-6" x="1478.52" y="610.22" width="68.19" height="68.19"/>
    <rect class="cls-12" x="864.88" y="542.05" width="68.19" height="68.19"/>
    <rect class="cls-6" x="864.88" y="542.05" width="68.19" height="68.19"/>
    <rect class="cls-8" x="933.05" y="542.05" width="68.19" height="68.19"/>
    <rect class="cls-6" x="933.05" y="542.05" width="68.19" height="68.19"/>
    <rect class="cls-8" x="1001.24" y="542.05" width="68.19" height="68.19"/>
    <rect class="cls-6" x="1001.24" y="542.05" width="68.19" height="68.19"/>
    <rect class="cls-8" x="1069.43" y="542.05" width="68.19" height="68.19"/>
    <rect class="cls-6" x="1069.43" y="542.05" width="68.19" height="68.19"/>
    <rect class="cls-8" x="1137.6" y="542.05" width="68.19" height="68.19"/>
    <rect class="cls-6" x="1137.6" y="542.05" width="68.19" height="68.19"/>
    <rect class="cls-8" x="1205.79" y="542.05" width="68.19" height="68.19"/>
    <rect class="cls-6" x="1205.79" y="542.05" width="68.19" height="68.19"/>
    <rect class="cls-8" x="1273.98" y="542.05" width="68.19" height="68.19"/>
    <rect class="cls-6" x="1273.98" y="542.05" width="68.19" height="68.19"/>
    <rect class="cls-8" x="1342.15" y="542.05" width="68.19" height="68.19"/>
    <rect class="cls-6" x="1342.15" y="542.05" width="68.19" height="68.19"/>
    <rect class="cls-8" x="1410.34" y="542.05" width="68.19" height="68.19"/>
    <rect class="cls-6" x="1410.34" y="542.05" width="68.19" height="68.19"/>
    <rect class="cls-8" x="1478.52" y="542.05" width="68.19" height="68.19"/>
    <rect class="cls-6" x="1478.52" y="542.05" width="68.19" height="68.19"/>
    <rect class="cls-12" x="864.88" y="473.86" width="68.19" height="68.19"/>
    <rect class="cls-6" x="864.88" y="473.86" width="68.19" height="68.19"/>
    <rect class="cls-8" x="933.05" y="473.86" width="68.19" height="68.19"/>
    <rect class="cls-6" x="933.05" y="473.86" width="68.19" height="68.19"/>
    <rect class="cls-8" x="1001.24" y="473.86" width="68.19" height="68.19"/>
    <rect class="cls-6" x="1001.24" y="473.86" width="68.19" height="68.19"/>
    <rect class="cls-8" x="1069.43" y="473.86" width="68.19" height="68.19"/>
    <rect class="cls-6" x="1069.43" y="473.86" width="68.19" height="68.19"/>
    <rect class="cls-8" x="1137.6" y="473.86" width="68.19" height="68.19"/>
    <rect class="cls-6" x="1137.6" y="473.86" width="68.19" height="68.19"/>
    <rect class="cls-8" x="1205.79" y="473.86" width="68.19" height="68.19"/>
    <rect class="cls-6" x="1205.79" y="473.86" width="68.19" height="68.19"/>
    <rect class="cls-8" x="1273.98" y="473.86" width="68.19" height="68.19"/>
    <rect class="cls-6" x="1273.98" y="473.86" width="68.19" height="68.19"/>
    <rect class="cls-8" x="1342.15" y="473.86" width="68.19" height="68.19"/>
    <rect class="cls-6" x="1342.15" y="473.86" width="68.19" height="68.19"/>
    <rect class="cls-8" x="1410.34" y="473.86" width="68.19" height="68.19"/>
    <rect class="cls-6" x="1410.34" y="473.86" width="68.19" height="68.19"/>
    <rect class="cls-8" x="1478.52" y="473.86" width="68.19" height="68.19"/>
    <rect class="cls-6" x="1478.52" y="473.86" width="68.19" height="68.19"/>
    <rect class="cls-12" x="864.88" y="405.68" width="68.19" height="68.19"/>
    <rect class="cls-6" x="864.88" y="405.68" width="68.19" height="68.19"/>
    <rect class="cls-8" x="933.05" y="405.68" width="68.19" height="68.19"/>
    <rect class="cls-6" x="933.05" y="405.68" width="68.19" height="68.19"/>
    <rect class="cls-8" x="1001.24" y="405.68" width="68.19" height="68.19"/>
    <rect class="cls-6" x="1001.24" y="405.68" width="68.19" height="68.19"/>
    <rect class="cls-8" x="1069.43" y="405.68" width="68.19" height="68.19"/>
    <rect class="cls-6" x="1069.43" y="405.68" width="68.19" height="68.19"/>
    <rect class="cls-8" x="1137.6" y="405.68" width="68.19" height="68.19"/>
    <rect class="cls-6" x="1137.6" y="405.68" width="68.19" height="68.19"/>
    <rect class="cls-8" x="1205.79" y="405.68" width="68.19" height="68.19"/>
    <rect class="cls-6" x="1205.79" y="405.68" width="68.19" height="68.19"/>
    <rect class="cls-8" x="1273.98" y="405.68" width="68.19" height="68.19"/>
    <rect class="cls-6" x="1273.98" y="405.68" width="68.19" height="68.19"/>
    <rect class="cls-8" x="1342.15" y="405.68" width="68.19" height="68.19"/>
    <rect class="cls-6" x="1342.15" y="405.68" width="68.19" height="68.19"/>
    <rect class="cls-8" x="1410.34" y="405.68" width="68.19" height="68.19"/>
    <rect class="cls-6" x="1410.34" y="405.68" width="68.19" height="68.19"/>
    <rect class="cls-8" x="1478.52" y="405.68" width="68.19" height="68.19"/>
    <rect class="cls-6" x="1478.52" y="405.68" width="68.19" height="68.19"/>
    <rect class="cls-12" x="864.88" y="337.51" width="68.19" height="68.19"/>
    <rect class="cls-6" x="864.88" y="337.51" width="68.19" height="68.19"/>
    <rect class="cls-8" x="933.05" y="337.51" width="68.19" height="68.19"/>
    <rect class="cls-6" x="933.05" y="337.51" width="68.19" height="68.19"/>
    <rect class="cls-8" x="1001.24" y="337.51" width="68.19" height="68.19"/>
    <rect class="cls-6" x="1001.24" y="337.51" width="68.19" height="68.19"/>
    <rect class="cls-8" x="1069.43" y="337.51" width="68.19" height="68.19"/>
    <rect class="cls-6" x="1069.43" y="337.51" width="68.19" height="68.19"/>
    <rect class="cls-8" x="1137.6" y="337.51" width="68.19" height="68.19"/>
    <rect class="cls-6" x="1137.6" y="337.51" width="68.19" height="68.19"/>
    <rect class="cls-8" x="1205.79" y="337.51" width="68.19" height="68.19"/>
    <rect class="cls-6" x="1205.79" y="337.51" width="68.19" height="68.19"/>
    <rect class="cls-8" x="1273.98" y="337.51" width="68.19" height="68.19"/>
    <rect class="cls-6" x="1273.98" y="337.51" width="68.19" height="68.19"/>
    <rect class="cls-8" x="1342.15" y="337.51" width="68.19" height="68.19"/>
    <rect class="cls-6" x="1342.15" y="337.51" width="68.19" height="68.19"/>
    <rect class="cls-8" x="1410.34" y="337.51" width="68.19" height="68.19"/>
    <rect class="cls-6" x="1410.34" y="337.51" width="68.19" height="68.19"/>
    <rect class="cls-8" x="1478.52" y="337.51" width="68.19" height="68.19"/>
    <rect class="cls-6" x="1478.52" y="337.51" width="68.19" height="68.19"/>
    <rect class="cls-8" x="864.88" y="269.32" width="68.19" height="68.19"/>
    <rect class="cls-6" x="864.88" y="269.32" width="68.19" height="68.19"/>
    <rect class="cls-8" x="933.05" y="269.32" width="68.19" height="68.19"/>
    <rect class="cls-6" x="933.05" y="269.32" width="68.19" height="68.19"/>
    <rect class="cls-8" x="1001.24" y="269.32" width="68.19" height="68.19"/>
    <rect class="cls-6" x="1001.24" y="269.32" width="68.19" height="68.19"/>
    <rect class="cls-8" x="1069.43" y="269.32" width="68.19" height="68.19"/>
    <rect class="cls-6" x="1069.43" y="269.32" width="68.19" height="68.19"/>
    <rect class="cls-8" x="1137.6" y="269.32" width="68.19" height="68.19"/>
    <rect class="cls-6" x="1137.6" y="269.32" width="68.19" height="68.19"/>
    <rect class="cls-8" x="1205.79" y="269.32" width="68.19" height="68.19"/>
    <rect class="cls-6" x="1205.79" y="269.32" width="68.19" height="68.19"/>
    <rect class="cls-8" x="1273.98" y="269.32" width="68.19" height="68.19"/>
    <rect class="cls-6" x="1273.98" y="269.32" width="68.19" height="68.19"/>
    <rect class="cls-8" x="1342.15" y="269.32" width="68.19" height="68.19"/>
    <rect class="cls-6" x="1342.15" y="269.32" width="68.19" height="68.19"/>
    <rect class="cls-8" x="1410.34" y="269.32" width="68.19" height="68.19"/>
    <rect class="cls-6" x="1410.34" y="269.32" width="68.19" height="68.19"/>
    <rect class="cls-8" x="1478.52" y="269.32" width="68.19" height="68.19"/>
    <rect class="cls-6" x="1478.52" y="269.32" width="68.19" height="68.19"/>
    <rect class="cls-8" x="864.88" y="201.13" width="68.19" height="68.19"/>
    <rect class="cls-6" x="864.88" y="201.13" width="68.19" height="68.19"/>
    <rect class="cls-8" x="933.05" y="201.13" width="68.19" height="68.19"/>
    <rect class="cls-6" x="933.05" y="201.13" width="68.19" height="68.19"/>
    <rect class="cls-8" x="1001.24" y="201.13" width="68.19" height="68.19"/>
    <rect class="cls-6" x="1001.24" y="201.13" width="68.19" height="68.19"/>
    <rect class="cls-8" x="1069.43" y="201.13" width="68.19" height="68.19"/>
    <rect class="cls-6" x="1069.43" y="201.13" width="68.19" height="68.19"/>
    <rect class="cls-8" x="1137.6" y="201.13" width="68.19" height="68.19"/>
    <rect class="cls-6" x="1137.6" y="201.13" width="68.19" height="68.19"/>
    <rect class="cls-8" x="1205.79" y="201.13" width="68.19" height="68.19"/>
    <rect class="cls-6" x="1205.79" y="201.13" width="68.19" height="68.19"/>
    <rect class="cls-8" x="1273.98" y="201.13" width="68.19" height="68.19"/>
    <rect class="cls-6" x="1273.98" y="201.13" width="68.19" height="68.19"/>
    <rect class="cls-8" x="1342.15" y="201.13" width="68.19" height="68.19"/>
    <rect class="cls-6" x="1342.15" y="201.13" width="68.19" height="68.19"/>
    <rect class="cls-8" x="1410.34" y="201.13" width="68.19" height="68.19"/>
    <rect class="cls-6" x="1410.34" y="201.13" width="68.19" height="68.19"/>
    <rect class="cls-8" x="1478.52" y="201.13" width="68.19" height="68.19"/>
    <rect class="cls-6" x="1478.52" y="201.13" width="68.19" height="68.19"/>
    <text class="cls-21" transform="translate(1128.4 577.91)"><tspan x="0" y="0">8%</tspan></text>
  </g>
</svg>