<?xml version="1.0" encoding="utf-8"?>
<!-- Generator: Adobe Illustrator 27.2.0, SVG Export Plug-In . SVG Version: 6.00 Build 0)  -->
<svg version="1.1" id="Layer_1" xmlns="http://www.w3.org/2000/svg" xmlns:xlink="http://www.w3.org/1999/xlink" x="0px" y="0px"
	 viewBox="0 0 411.1 714.1" style="enable-background:new 0 0 411.1 714.1;" xml:space="preserve">
<style type="text/css">
	.st0{fill:#1F2A44;}
	.st1{fill:none;}
	.st2{fill:none;stroke:#FC3B2B;stroke-width:2;stroke-miterlimit:10;}
	.st3{display:none;fill:none;stroke:#FC3B2B;stroke-width:2;stroke-miterlimit:10;}
	.st4{fill:none;stroke:#1D98CA;stroke-width:2;stroke-miterlimit:10;}
	.st5{display:none;fill:none;stroke:#1D98CA;stroke-width:2;stroke-miterlimit:10;}
	.st6{fill:#FC3B2B;}
	.st7{fill:#1D98CA;}
	.st8{opacity:0.1;fill:#000102;enable-background:new    ;}
	.st9{display:none;}
	.st10{fill:#EDDD1B;}
	.st11{font-family:'WRCCleanBold2022';}
	.st12{font-size:10px;}
	.st13{fill:#B3B4B7;}
	.st14{fill:#D8951E;}
	.st15{fill:#FFFFFF;}
	.st16{fill:#000205;}
	.st17{font-size:7px;}
	.st18{font-size:5px;}
	.st19{font-size:13px;}
	.st20{font-family:'WRCCleanRoman2022';}
	.st21{font-size:6px;}
</style>
<rect x="24.2" y="51.6" class="st0" width="364" height="27.6"/>
<path class="st1" d="M91,677V23.2h225"/>
<path class="st2" d="M287.9,98.2l-56.3,2.1l-112.5,2.1v2.1L287.9,98.2z M119,115.2l168.8,2.1L119,115.2z M175.3,128.2l-56.2,2
	l112.5,2.2l-84.4,2.1l-28.1,2.1v2.1l28.1,2.1v2.1l-28.1,2.1v2.1 M203.5,151.8l-84.4,2.1l28.1,2.1l-28.1,2.1l28.2,2.2l56.2,2.1
	l-84.4,2.1l28,2.1v2.1v2.1v2.1 M119,177.4v2.1l84.4,4.3l-84.4,2.1v2.1v2.1v2.1v2.2v2.1l28.1,2.1l-28.1,2.1l56.2,2.1l-28,2.5
	l-28.1,2.1v2.1l28.1,4.3v2.1l-28.1,2.1v2.1v2.1v2.1v2.1l28.1,2.1l-28.1,2.1l28.1,2.1l-28.1,2.1v2.1 M119,248.1l28.2,2.1l-28.1,2.2
	v2.1v2.1v2.1 M147.2,263.1l28.1,2.1l-56.2,2.2l28.1,2.1l-28.1,2.1v2.1 M119,278.1l56.2,2.1l-56.2,2.1 M119,286.7v2.1v2.1v2.1v2.1
	l56.2,2.1l-56.2,2.1v2.1v2.1v2.1v2.1l56.2,2.1l-56.2,2.1v2.1v2.1v2.1v2.1v2.1l84.4,2.1 M287.9,329.5l-140.6,2.1v2.1l-28.1,2.1v2.1
	l28.1,2.3l-28.2,2.2v2.1v2.1l56.2,2.1l-28.1,2.1l-28.1,2.1l56.2,2.1l-56.2,2.1l112.5,2.1l-112.5,2.1v2.1v2.1l140.6,2.1l-140.6,2.1
	l28.1,2.1l28.1,2.1l-56.2,2.1v2.1l28.1,2.1l-28.1,2.1l28.1,3l-28.1,2.1 M119,396l140.6,2.1L119,400.2 M119,404.5v2.1v2.1v2.1v2.1
	l28.2,2.3l-28.1,2.2 M119,421.8v2.1l28.1,2.1L119,421.8z M231.6,567.5l-112.5,2.1L231.6,567.5z M203.5,591l84.4,2.1L203.5,591z
	 M203.5,616.8l56.2,2.1L203.5,616.8z"/>
<path class="st3" d="M-78.3,246.4"/>
<path class="st4" d="M259.7,331.8l-28.1,2.1v2.1 M231.6,340.3l-56.2,2.1l84.4,2.1l-56.2,2.1l-56.2,2.1l-28.1,2.1l84.4,2.1l-56.4,2.4
	l28.1,2.1l-56.2,2.1l140.6,2.1l-140.7,2.1L231.6,340.3z M119,372.5v2.1l84.4,2.1l-28.1,2.1l-56.2,2.1l56.2,2.1l-56.2,2.1v2.1v2.1
	L119,372.5L119,372.5z M119,398.2l196.9,2.1l-28.1,2.1v2.1v2.1 M119,411l140.6,2.1L119,415.2v2.1l112.5,2.1 M147.2,423.9l-28.1,2.1
	v2.1v2.1l28.1,2.1l-28.1,2.1v2.1v2.1v2.1v2.1v2.1v2.1v2.1v2.1l140.6,2.1l-140.6,2.1v2.1l28.1,2.8l-28.1,2.1v2.1l28.1,2.1 M119,471
	v2.1v2.1v2.1v2.1v2.1v2.1v2.1l28.1,2.1l-28.1,2.1v2.1l28.1,2.1l-28.1,2.1v2.1v2.1 M119,505.3v2.1v2.1l28.1,2.1v2.1l28.1,2.1v2.1
	l84.4,2.1l-112.5,2l-28.1,2.1v2.1v2.1v2.1l28.1,2.1l-28.1,2.1l56.2,2.1l-28.1,2.1v2.1l56.2,2.1l-84.4,2.1l112.5,2.1l-56.2,2.1
	 M175.3,554.5l-28.1,2.1l28.1,2.1l28.1,2.1l-84.4,2.1v2.1v2.1v2.1l84.4,2.1 M147.2,576l84.4,2.1l-28.1,2.1l-84.4,2.1v2.1l28.1,2.1
	l84.4,2.1l-112.5,2l28.1,2.1l-28.1,2.1l28.1,2.1l28.1,2.1l-28.1,2.1l28.1,2.1l28.1,2.1l28.1,2.1l56.3,2.1l-168.7,2.1l56.2,2.1
	l140.6,2.1l-168.8,2.1l56.2,2.1l-84.4,2.1l56.2,2.1 M175.3,629.5l-56.2,2.1v2.1l28.1,2.1l-28.1,2.1l56.2,2.1l-56.2,2.1v2.1l84.4,2.1
	l28.1,2.1l-56.2,2.1l56.2,2.1l-28.1,2.1l-84.4,2.1l28.1,2.1 M147.2,681l-28.1,2.1l84.4,2.1l-84.4,2.1"/>
<path class="st5" d="M-133.5,247.8"/>
<path class="st6" d="M147.2,89.3c-1.1,0-2.1-0.9-2.1-2.1s0.9-2,2.1-2c1.1,0,2.1,0.9,2.1,2.1S148.3,89.3,147.2,89.3"/>
<path class="st6" d="M287.9,100.2c-1.1,0-2.1-0.9-2.1-2.1s0.9-2.1,2.1-2.1s2.1,0.9,2.1,2.1S289,100.2,287.9,100.2"/>
<path class="st6" d="M231.6,102.3c-1.1,0-2.1-0.9-2.1-2.1c0-1.1,0.9-2.1,2.1-2.1c1.1,0,2.1,0.9,2.1,2.1
	C233.6,101.4,232.7,102.3,231.6,102.3"/>
<path class="st6" d="M119,104.4c-1.1,0-2.1-0.9-2.1-2.1c0-1.1,0.9-2.1,2.1-2.1s2.1,0.9,2.1,2.1C121.1,103.6,120.2,104.4,119,104.4"
	/>
<path class="st6" d="M119,106.6c-1.1,0-2.1-0.9-2.1-2.1c0-1.1,0.9-2.1,2.1-2.1s2.1,0.9,2.1,2.1C121.1,105.6,120.2,106.6,119,106.6"
	/>
<path class="st6" d="M287.9,113.1c-1.1,0-2.1-0.9-2.1-2.1s0.9-2.1,2.1-2.1s2.1,0.9,2.1,2.1S289,113.1,287.9,113.1"/>
<path class="st6" d="M119,117.3c-1.1,0-2.1-0.9-2.1-2.1c0-1.1,0.9-2.1,2.1-2.1s2.1,0.9,2.1,2.1S120.2,117.3,119,117.3"/>
<path class="st6" d="M287.9,119.4c-1.1,0-2.1-0.9-2.1-2.1c0-1.1,0.9-2.1,2.1-2.1s2.1,0.9,2.1,2.1C289.9,118.6,289,119.4,287.9,119.4
	"/>
<path class="st6" d="M203.5,123.7c-1.1,0-2.1-0.9-2.1-2.1c0-1.1,0.9-2.1,2.1-2.1c1.1,0,2.1,0.9,2.1,2.1S204.6,123.7,203.5,123.7"/>
<path class="st6" d="M175.3,130.2c-1.1,0-2.1-0.9-2.1-2.1c0-1.2,0.9-2.1,2.1-2.1c1.1,0,2.1,0.9,2.1,2.1
	C177.4,129.3,176.5,130.2,175.3,130.2"/>
<path class="st6" d="M119,132.4c-1.1,0-2.1-0.9-2.1-2.1s0.9-2.1,2.1-2.1s2.1,0.9,2.1,2.1S120.2,132.4,119,132.4"/>
<path class="st6" d="M231.6,134.4c-1.1,0-2.1-0.9-2.1-2.1s0.9-2.1,2.1-2.1c1.1,0,2.1,0.9,2.1,2.1S232.7,134.4,231.6,134.4"/>
<path class="st6" d="M147.2,136.6c-1.1,0-2.1-0.9-2.1-2.1s0.9-2.1,2.1-2.1c1.1,0,2.1,0.9,2.1,2.1S148.3,136.6,147.2,136.6"/>
<path class="st6" d="M119,138.7c-1.1,0-2.1-0.9-2.1-2.1s0.9-2.1,2.1-2.1s2.1,0.9,2.1,2.1S120.2,138.7,119,138.7"/>
<path class="st6" d="M119,140.9c-1.1,0-2.1-0.9-2.1-2.1s0.9-2.1,2.1-2.1s2.1,0.9,2.1,2.1S120.2,140.9,119,140.9"/>
<path class="st6" d="M147.2,143.1c-1.1,0-2.1-0.9-2.1-2.1c0-1.1,0.9-2.1,2.1-2.1c1.1,0,2.1,0.9,2.1,2.1
	C149.2,142.1,148.3,143.1,147.2,143.1"/>
<path class="st6" d="M147.2,145.1c-1.1,0-2.1-0.9-2.1-2.1s0.9-2.1,2.1-2.1c1.1,0,2.1,0.9,2.1,2.1
	C149.3,144.3,148.3,145.1,147.2,145.1"/>
<path class="st6" d="M119,147.4c-1.1,0-2.1-0.9-2.1-2.1c0-1.1,0.9-2.1,2.1-2.1s2.1,0.9,2.1,2.1C121.1,146.4,120.2,147.4,119,147.4"
	/>
<path class="st6" d="M119,149.4c-1.1,0-2.1-0.9-2.1-2.1c0-1.2,0.9-2.1,2.1-2.1s2.1,0.9,2.1,2.1S120.2,149.4,119,149.4"/>
<path class="st6" d="M203.5,153.8c-1.1,0-2.1-0.9-2.1-2.1s0.9-2.1,2.1-2.1c1.1,0,2.1,0.9,2.1,2.1S204.6,153.8,203.5,153.8"/>
<path class="st6" d="M119,155.9c-1.1,0-2.1-0.9-2.1-2.1c0-1.2,0.9-2.1,2.1-2.1s2.1,0.9,2.1,2.1S120.2,155.9,119,155.9"/>
<path class="st6" d="M147.2,158.1c-1.1,0-2.1-0.9-2.1-2.1c0-1.1,0.9-2.1,2.1-2.1c1.1,0,2.1,0.9,2.1,2.1
	C149.2,157.1,148.3,158.1,147.2,158.1"/>
<path class="st6" d="M119,160.1c-1.1,0-2.1-0.9-2.1-2.1s0.9-2.1,2.1-2.1s2.1,0.9,2.1,2.1C121.1,159.2,120.2,160.1,119,160.1"/>
<path class="st6" d="M147.2,162.4c-1.1,0-2.1-0.9-2.1-2.1c0-1.1,0.9-2.1,2.1-2.1c1.1,0,2.1,0.9,2.1,2.1
	C149.2,161.4,148.3,162.4,147.2,162.4"/>
<path class="st6" d="M203.5,164.4c-1.1,0-2.1-0.9-2.1-2.1c0-1.2,0.9-2.1,2.1-2.1c1.1,0,2.1,0.9,2.1,2.1S204.6,164.4,203.5,164.4"/>
<path class="st6" d="M119,166.6c-1.1,0-2.1-0.9-2.1-2.1c0-1.2,0.9-2.1,2.1-2.1s2.1,0.9,2.1,2.1C121.1,165.7,120.2,166.6,119,166.6"
	/>
<path class="st6" d="M147.2,168.7c-1.1,0-2.1-0.9-2.1-2.1s0.9-2.1,2.1-2.1c1.1,0,2.1,0.9,2.1,2.1S148.3,168.7,147.2,168.7"/>
<path class="st6" d="M147.2,170.9c-1.1,0-2.1-0.9-2.1-2.1c0-1.2,0.9-2.1,2.1-2.1c1.1,0,2.1,0.9,2.1,2.1S148.3,170.9,147.2,170.9"/>
<path class="st6" d="M147.2,173.1c-1.1,0-2.1-0.9-2.1-2.1c0-1.1,0.9-2.1,2.1-2.1c1.1,0,2.1,0.9,2.1,2.1
	C149.2,172.1,148.3,173.1,147.2,173.1"/>
<path class="st6" d="M147.2,175.1c-1.1,0-2.1-0.9-2.1-2.1c0-1.2,0.9-2.1,2.1-2.1c1.1,0,2.1,0.9,2.1,2.1
	C149.3,174.2,148.3,175.1,147.2,175.1"/>
<path class="st6" d="M119,179.4c-1.1,0-2.1-0.9-2.1-2.1c0-1.2,0.9-2.1,2.1-2.1s2.1,0.9,2.1,2.1S120.2,179.4,119,179.4"/>
<path class="st6" d="M119,181.6c-1.1,0-2.1-0.9-2.1-2.1c0-1.2,0.9-2.1,2.1-2.1s2.1,0.9,2.1,2.1C121.1,180.7,120.2,181.6,119,181.6"
	/>
<path class="st6" d="M203.5,185.9c-1.1,0-2.1-0.9-2.1-2.1c0-1.2,0.9-2.1,2.1-2.1c1.1,0,2.1,0.9,2.1,2.1S204.6,185.9,203.5,185.9"/>
<path class="st6" d="M119,188.1c-1.1,0-2.1-0.9-2.1-2.1c0-1.1,0.9-2.1,2.1-2.1s2.1,0.9,2.1,2.1C121.1,187.1,120.2,188.1,119,188.1"
	/>
<path class="st6" d="M119,190.1c-1.1,0-2.1-0.9-2.1-2.1c0-1.2,0.9-2.1,2.1-2.1s2.1,0.9,2.1,2.1C121.1,189.2,120.2,190.1,119,190.1"
	/>
<path class="st6" d="M119,192.4c-1.1,0-2.1-0.9-2.1-2.1c0-1.1,0.9-2.1,2.1-2.1s2.1,0.9,2.1,2.1C121.1,191.4,120.2,192.4,119,192.4"
	/>
<path class="st6" d="M119,194.4c-1.1,0-2.1-0.9-2.1-2.1c0-1.2,0.9-2.1,2.1-2.1s2.1,0.9,2.1,2.1S120.2,194.4,119,194.4"/>
<path class="st6" d="M119,196.6c-1.1,0-2.1-0.9-2.1-2.1c0-1.2,0.9-2.1,2.1-2.1s2.1,0.9,2.1,2.1C121.1,195.7,120.2,196.6,119,196.6"
	/>
<path class="st6" d="M119,198.8c-1.1,0-2.1-0.9-2.1-2.1s0.9-2.1,2.1-2.1s2.1,0.9,2.1,2.1S120.2,198.8,119,198.8"/>
<path class="st6" d="M147.2,200.9c-1.1,0-2.1-0.9-2.1-2.1c0-1.2,0.9-2.1,2.1-2.1c1.1,0,2.1,0.9,2.1,2.1S148.3,200.9,147.2,200.9"/>
<path class="st6" d="M119,203.1c-1.1,0-2.1-0.9-2.1-2.1c0-1.1,0.9-2.1,2.1-2.1s2.1,0.9,2.1,2.1C121.1,202.1,120.2,203.1,119,203.1"
	/>
<path class="st6" d="M175.3,205.1c-1.1,0-2.1-0.9-2.1-2.1c0-1.2,0.9-2.1,2.1-2.1c1.1,0,2.1,0.9,2.1,2.1
	C177.4,204.2,176.5,205.1,175.3,205.1"/>
<path class="st6" d="M147.2,207.4c-1.1,0-2.1-0.9-2.1-2.1c0-1.1,0.9-2.1,2.1-2.1c1.1,0,2.1,0.9,2.1,2.1
	C149.2,206.4,148.3,207.4,147.2,207.4"/>
<path class="st6" d="M119,209.4c-1.1,0-2.1-0.9-2.1-2.1c0-1.2,0.9-2.1,2.1-2.1s2.1,0.9,2.1,2.1C121.1,208.6,120.2,209.4,119,209.4"
	/>
<path class="st6" d="M119,211.6c-1.1,0-2.1-0.9-2.1-2.1s0.9-2.1,2.1-2.1s2.1,0.9,2.1,2.1S120.2,211.6,119,211.6"/>
<path class="st6" d="M147.2,215.9c-1.1,0-2.1-0.9-2.1-2.1s0.9-2.1,2.1-2.1c1.1,0,2.1,0.9,2.1,2.1S148.3,215.9,147.2,215.9"/>
<path class="st6" d="M147.2,218.1c-1.1,0-2.1-0.9-2.1-2.1c0-1.1,0.9-2.1,2.1-2.1c1.1,0,2.1,0.9,2.1,2.1
	C149.2,217.1,148.3,218.1,147.2,218.1"/>
<path class="st6" d="M119,220.1c-1.1,0-2.1-0.9-2.1-2.1s0.9-2.1,2.1-2.1s2.1,0.9,2.1,2.1S120.2,220.1,119,220.1"/>
<path class="st6" d="M119,222.4c-1.1,0-2.1-0.9-2.1-2.1c0-1.1,0.9-2.1,2.1-2.1s2.1,0.9,2.1,2.1C121.1,221.4,120.2,222.4,119,222.4"
	/>
<path class="st6" d="M119,224.4c-1.1,0-2.1-0.9-2.1-2.1s0.9-2.1,2.1-2.1s2.1,0.9,2.1,2.1S120.2,224.4,119,224.4"/>
<path class="st6" d="M119,226.6c-1.1,0-2.1-0.9-2.1-2.1c0-1.1,0.9-2.1,2.1-2.1s2.1,0.9,2.1,2.1C121.1,225.6,120.2,226.6,119,226.6"
	/>
<path class="st6" d="M119,228.7c-1.1,0-2.1-0.9-2.1-2.1c0-1.1,0.9-2.1,2.1-2.1s2.1,0.9,2.1,2.1S120.2,228.7,119,228.7"/>
<path class="st6" d="M147.2,230.9c-1.1,0-2.1-0.9-2.1-2.1s0.9-2.1,2.1-2.1c1.1,0,2.1,0.9,2.1,2.1S148.3,230.9,147.2,230.9"/>
<path class="st6" d="M119,233.1c-1.1,0-2.1-0.9-2.1-2.1c0-1.1,0.9-2.1,2.1-2.1s2.1,0.9,2.1,2.1C121.1,232.1,120.2,233.1,119,233.1"
	/>
<path class="st6" d="M147.2,235.1c-1.1,0-2.1-0.9-2.1-2.1s0.9-2.1,2.1-2.1c1.1,0,2.1,0.9,2.1,2.1S148.3,235.1,147.2,235.1"/>
<path class="st6" d="M119,237.4c-1.1,0-2.1-0.9-2.1-2.1c0-1.1,0.9-2.1,2.1-2.1s2.1,0.9,2.1,2.1C121.1,236.4,120.2,237.4,119,237.4"
	/>
<path class="st6" d="M119,239.4c-1.1,0-2.1-0.9-2.1-2.1s0.9-2.1,2.1-2.1s2.1,0.9,2.1,2.1S120.2,239.4,119,239.4"/>
<path class="st6" d="M119,250.1c-1.1,0-2.1-0.9-2.1-2.1s0.9-2.1,2.1-2.1s2.1,0.9,2.1,2.1S120.2,250.1,119,250.1"/>
<path class="st6" d="M147.2,252.4c-1.1,0-2.1-0.9-2.1-2.1c0-1.1,0.9-2.1,2.1-2.1c1.1,0,2.1,0.9,2.1,2.1
	C149.2,251.4,148.3,252.4,147.2,252.4"/>
<path class="st6" d="M119,254.4c-1.1,0-2.1-0.9-2.1-2.1s0.9-2.1,2.1-2.1s2.1,0.9,2.1,2.1S120.2,254.4,119,254.4"/>
<path class="st6" d="M119,256.6c-1.1,0-2.1-0.9-2.1-2.1c0-1.1,0.9-2.1,2.1-2.1s2.1,0.9,2.1,2.1C121.1,255.6,120.2,256.6,119,256.6"
	/>
<path class="st6" d="M119,258.7c-1.1,0-2.1-0.9-2.1-2.1c0-1.1,0.9-2.1,2.1-2.1s2.1,0.9,2.1,2.1C121.1,257.8,120.2,258.7,119,258.7"
	/>
<path class="st6" d="M119,261c-1.1,0-2.1-0.9-2.1-2.1s0.9-2.1,2.1-2.1s2.1,0.9,2.1,2.1S120.2,261,119,261"/>
<path class="st6" d="M147.2,265.1c-1.1,0-2.1-0.9-2.1-2.1s0.9-2.1,2.1-2.1c1.1,0,2.1,0.9,2.1,2.1S148.3,265.1,147.2,265.1"/>
<path class="st6" d="M175.3,267.4c-1.1,0-2.1-0.9-2.1-2.1s0.9-2.1,2.1-2.1c1.1,0,2.1,0.9,2.1,2.1
	C177.4,266.5,176.5,267.4,175.3,267.4"/>
<path class="st6" d="M119,269.5c-1.1,0-2.1-0.9-2.1-2.1c0-1.1,0.9-2.1,2.1-2.1s2.1,0.9,2.1,2.1C121.1,268.5,120.2,269.5,119,269.5"
	/>
<path class="st6" d="M147.2,271.6c-1.1,0-2.1-0.9-2.1-2.1s0.9-2.1,2.1-2.1c1.1,0,2.1,0.9,2.1,2.1S148.3,271.6,147.2,271.6"/>
<path class="st6" d="M119,273.7c-1.1,0-2.1-0.9-2.1-2.1s0.9-2.1,2.1-2.1s2.1,0.9,2.1,2.1C121.1,272.8,120.2,273.7,119,273.7"/>
<path class="st6" d="M119,276c-1.1,0-2.1-0.9-2.1-2.1c0-1.1,0.9-2.1,2.1-2.1s2.1,0.9,2.1,2.1C121.1,275,120.2,276,119,276"/>
<path class="st6" d="M119,280.1c-1.1,0-2.1-0.9-2.1-2.1s0.9-2.1,2.1-2.1s2.1,0.9,2.1,2.1S120.2,280.1,119,280.1"/>
<path class="st6" d="M175.3,282.4c-1.1,0-2.1-0.9-2.1-2.1s0.9-2.1,2.1-2.1c1.1,0,2.1,0.9,2.1,2.1
	C177.4,281.5,176.5,282.4,175.3,282.4"/>
<path class="st6" d="M119,284.5c-1.1,0-2.1-0.9-2.1-2.1c0-1.1,0.9-2.1,2.1-2.1s2.1,0.9,2.1,2.1C121.1,283.5,120.2,284.5,119,284.5"
	/>
<path class="st6" d="M119,288.7c-1.1,0-2.1-0.9-2.1-2.1s0.9-2.1,2.1-2.1s2.1,0.9,2.1,2.1C121.1,287.8,120.2,288.7,119,288.7"/>
<path class="st6" d="M119,291c-1.1,0-2.1-0.9-2.1-2.1c0-1.1,0.9-2.1,2.1-2.1s2.1,0.9,2.1,2.1C121.1,290,120.2,291,119,291"/>
<path class="st6" d="M119,293c-1.1,0-2.1-0.9-2.1-2.1s0.9-2.1,2.1-2.1s2.1,0.9,2.1,2.1S120.2,293,119,293"/>
<path class="st6" d="M119,295.1c-1.1,0-2.1-0.9-2.1-2.1s0.9-2.1,2.1-2.1s2.1,0.9,2.1,2.1S120.2,295.1,119,295.1"/>
<path class="st6" d="M119,297.4c-1.1,0-2.1-0.9-2.1-2.1s0.9-2.1,2.1-2.1s2.1,0.9,2.1,2.1S120.2,297.4,119,297.4"/>
<path class="st6" d="M175.3,299.5c-1.1,0-2.1-0.9-2.1-2.1c0-1.1,0.9-2.1,2.1-2.1c1.1,0,2.1,0.9,2.1,2.1
	C177.3,298.5,176.5,299.5,175.3,299.5"/>
<path class="st6" d="M119,301.6c-1.1,0-2.1-0.9-2.1-2.1s0.9-2.1,2.1-2.1s2.1,0.9,2.1,2.1S120.2,301.6,119,301.6"/>
<path class="st6" d="M119,303.8c-1.1,0-2.1-0.9-2.1-2.1s0.9-2.1,2.1-2.1s2.1,0.9,2.1,2.1S120.2,303.8,119,303.8"/>
<path class="st6" d="M119,306c-1.1,0-2.1-0.9-2.1-2.1c0-1.1,0.9-2.1,2.1-2.1s2.1,0.9,2.1,2.1C121.1,305,120.2,306,119,306"/>
<path class="st6" d="M119,308c-1.1,0-2.1-0.9-2.1-2.1s0.9-2.1,2.1-2.1s2.1,0.9,2.1,2.1S120.2,308,119,308"/>
<path class="st6" d="M119,310.2c-1.1,0-2.1-0.9-2.1-2.1s0.9-2.1,2.1-2.1s2.1,0.9,2.1,2.1S120.2,310.2,119,310.2"/>
<path class="st6" d="M175.3,312.4c-1.1,0-2.1-0.9-2.1-2.1s0.9-2.1,2.1-2.1c1.1,0,2.1,0.9,2.1,2.1S176.5,312.4,175.3,312.4"/>
<path class="st6" d="M119,314.5c-1.1,0-2.1-0.9-2.1-2.1c0-1.1,0.9-2.1,2.1-2.1s2.1,0.9,2.1,2.1C121.1,313.5,120.2,314.5,119,314.5"
	/>
<path class="st6" d="M119,316.6c-1.1,0-2.1-0.9-2.1-2.1s0.9-2.1,2.1-2.1s2.1,0.9,2.1,2.1S120.2,316.6,119,316.6"/>
<path class="st7" d="M259.7,316.6c-1.1,0-2.1-0.9-2.1-2.1s0.9-2.1,2.1-2.1c1.1,0,2.1,0.9,2.1,2.1S260.9,316.6,259.7,316.6"/>
<path class="st6" d="M119,318.8c-1.1,0-2.1-0.9-2.1-2.1s0.9-2.1,2.1-2.1s2.1,0.9,2.1,2.1S120.2,318.8,119,318.8"/>
<path class="st6" d="M119,321c-1.1,0-2.1-0.9-2.1-2.1c0-1.1,0.9-2.1,2.1-2.1s2.1,0.9,2.1,2.1C121.1,320,120.2,321,119,321"/>
<path class="st6" d="M119,323c-1.1,0-2.1-0.9-2.1-2.1s0.9-2.1,2.1-2.1s2.1,0.9,2.1,2.1S120.2,323,119,323"/>
<path class="st6" d="M119,325.2c-1.1,0-2.1-0.9-2.1-2.1s0.9-2.1,2.1-2.1s2.1,0.9,2.1,2.1S120.2,325.2,119,325.2"/>
<path class="st7" d="M287.9,325.2c-1.1,0-2.1-0.9-2.1-2.1s0.9-2.1,2.1-2.1s2.1,0.9,2.1,2.1S289,325.2,287.9,325.2"/>
<path class="st6" d="M203.5,327.4c-1.1,0-2.1-0.9-2.1-2.1s0.9-2.1,2.1-2.1c1.1,0,2.1,0.9,2.1,2.1S204.6,327.4,203.5,327.4"/>
<path class="st7" d="M147.2,329.5c-1.1,0-2.1-0.9-2.1-2.1c0-1.1,0.9-2.1,2.1-2.1c1.1,0,2.1,0.9,2.1,2.1
	C149.2,328.5,148.3,329.5,147.2,329.5"/>
<path class="st6" d="M287.9,331.6c-1.1,0-2.1-0.9-2.1-2.1s0.9-2.1,2.1-2.1s2.1,0.9,2.1,2.1S289,331.6,287.9,331.6"/>
<path class="st6" d="M147.2,333.8c-1.1,0-2.1-0.9-2.1-2.1s0.9-2.1,2.1-2.1c1.1,0,2.1,0.9,2.1,2.1S148.3,333.8,147.2,333.8"/>
<path class="st7" d="M259.7,333.8c-1.1,0-2.1-0.9-2.1-2.1s0.9-2.1,2.1-2.1c1.1,0,2.1,0.9,2.1,2.1S260.9,333.8,259.7,333.8"/>
<path class="st6" d="M147.2,336c-1.1,0-2.1-0.9-2.1-2.1c0-1.1,0.9-2.1,2.1-2.1c1.1,0,2.1,0.9,2.1,2.1C149.2,335,148.3,336,147.2,336
	"/>
<path class="st7" d="M231.6,336c-1.1,0-2.1-0.9-2.1-2.1c0-1.1,0.9-2.1,2.1-2.1c1.1,0,2.1,0.9,2.1,2.1C233.6,335,232.7,336,231.6,336
	"/>
<path class="st6" d="M119,338c-1.1,0-2.1-0.9-2.1-2.1s0.9-2.1,2.1-2.1s2.1,0.9,2.1,2.1S120.2,338,119,338"/>
<path class="st7" d="M231.6,338c-1.1,0-2.1-0.9-2.1-2.1s0.9-2.1,2.1-2.1c1.1,0,2.1,0.9,2.1,2.1S232.7,338,231.6,338"/>
<path class="st6" d="M119,340.2c-1.1,0-2.1-0.9-2.1-2.1s0.9-2.1,2.1-2.1s2.1,0.9,2.1,2.1S120.2,340.2,119,340.2"/>
<path class="st6" d="M147.2,342.4c-1.1,0-2.1-0.9-2.1-2.1s0.9-2.1,2.1-2.1c1.1,0,2.1,0.9,2.1,2.1S148.3,342.4,147.2,342.4"/>
<path class="st7" d="M231.6,342.4c-1.1,0-2.1-0.9-2.1-2.1s0.9-2.1,2.1-2.1c1.1,0,2.1,0.9,2.1,2.1S232.7,342.4,231.6,342.4"/>
<path class="st6" d="M119,344.5c-1.1,0-2.1-0.9-2.1-2.1c0-1.1,0.9-2.1,2.1-2.1s2.1,0.9,2.1,2.1C121.1,343.5,120.2,344.5,119,344.5"
	/>
<path class="st7" d="M175.3,344.5c-1.1,0-2.1-0.9-2.1-2.1c0-1.1,0.9-2.1,2.1-2.1c1.1,0,2.1,0.9,2.1,2.1
	C177.3,343.5,176.5,344.5,175.3,344.5"/>
<path class="st6" d="M119,346.6c-1.1,0-2.1-0.9-2.1-2.1s0.9-2.1,2.1-2.1s2.1,0.9,2.1,2.1S120.2,346.6,119,346.6"/>
<path class="st7" d="M259.7,346.6c-1.1,0-2.1-0.9-2.1-2.1s0.9-2.1,2.1-2.1c1.1,0,2.1,0.9,2.1,2.1S260.9,346.6,259.7,346.6"/>
<path class="st6" d="M119,348.8c-1.1,0-2.1-0.9-2.1-2.1s0.9-2.1,2.1-2.1s2.1,0.9,2.1,2.1S120.2,348.8,119,348.8"/>
<path class="st7" d="M203.5,348.8c-1.1,0-2.1-0.9-2.1-2.1s0.9-2.1,2.1-2.1c1.1,0,2.1,0.9,2.1,2.1S204.6,348.8,203.5,348.8"/>
<path class="st6" d="M175.3,351c-1.1,0-2.1-0.9-2.1-2.1c0-1.1,0.9-2.1,2.1-2.1c1.1,0,2.1,0.9,2.1,2.1C177.3,350,176.5,351,175.3,351
	"/>
<path class="st7" d="M147.2,351c-1.1,0-2.1-0.9-2.1-2.1c0-1.1,0.9-2.1,2.1-2.1c1.1,0,2.1,0.9,2.1,2.1C149.2,350,148.3,351,147.2,351
	"/>
<path class="st6" d="M147.2,353c-1.1,0-2.1-0.9-2.1-2.1s0.9-2.1,2.1-2.1c1.1,0,2.1,0.9,2.1,2.1S148.3,353,147.2,353"/>
<path class="st7" d="M119,353c-1.1,0-2.1-0.9-2.1-2.1s0.9-2.1,2.1-2.1s2.1,0.9,2.1,2.1S120.2,353,119,353"/>
<path class="st6" d="M119,355.2c-1.1,0-2.1-0.9-2.1-2.1s0.9-2.1,2.1-2.1s2.1,0.9,2.1,2.1S120.2,355.2,119,355.2"/>
<path class="st7" d="M203.5,355.2c-1.1,0-2.1-0.9-2.1-2.1s0.9-2.1,2.1-2.1c1.1,0,2.1,0.9,2.1,2.1S204.6,355.2,203.5,355.2"/>
<path class="st6" d="M175.3,357.4c-1.1,0-2.1-0.9-2.1-2.1s0.9-2.1,2.1-2.1c1.1,0,2.1,0.9,2.1,2.1S176.5,357.4,175.3,357.4"/>
<path class="st7" d="M147.2,357.4c-1.1,0-2.1-0.9-2.1-2.1s0.9-2.1,2.1-2.1c1.1,0,2.1,0.9,2.1,2.1S148.3,357.4,147.2,357.4"/>
<path class="st6" d="M119,359.5c-1.1,0-2.1-0.9-2.1-2.1c0-1.1,0.9-2.1,2.1-2.1s2.1,0.9,2.1,2.1C121.1,358.5,120.2,359.5,119,359.5"
	/>
<path class="st7" d="M175.3,359.5c-1.1,0-2.1-0.9-2.1-2.1c0-1.1,0.9-2.1,2.1-2.1c1.1,0,2.1,0.9,2.1,2.1
	C177.3,358.5,176.5,359.5,175.3,359.5"/>
<path class="st6" d="M231.6,361.6c-1.1,0-2.1-0.9-2.1-2.1s0.9-2.1,2.1-2.1c1.1,0,2.1,0.9,2.1,2.1S232.7,361.6,231.6,361.6"/>
<path class="st7" d="M119,361.6c-1.1,0-2.1-0.9-2.1-2.1s0.9-2.1,2.1-2.1s2.1,0.9,2.1,2.1S120.2,361.6,119,361.6"/>
<path class="st6" d="M119,363.8c-1.1,0-2.1-0.9-2.1-2.1s0.9-2.1,2.1-2.1s2.1,0.9,2.1,2.1S120.2,363.8,119,363.8"/>
<path class="st7" d="M259.7,363.8c-1.1,0-2.1-0.9-2.1-2.1s0.9-2.1,2.1-2.1c1.1,0,2.1,0.9,2.1,2.1S260.9,363.8,259.7,363.8"/>
<path class="st6" d="M119,366c-1.1,0-2.1-0.9-2.1-2.1c0-1.1,0.9-2.1,2.1-2.1s2.1,0.9,2.1,2.1C121.1,365,120.2,366,119,366"/>
<path class="st7" d="M119,366c-1.1,0-2.1-0.9-2.1-2.1c0-1.1,0.9-2.1,2.1-2.1s2.1,0.9,2.1,2.1C121.1,365,120.2,366,119,366"/>
<path class="st6" d="M119,368c-1.1,0-2.1-0.9-2.1-2.1s0.9-2.1,2.1-2.1s2.1,0.9,2.1,2.1S120.2,368,119,368"/>
<path class="st6" d="M259.7,370.2c-1.1,0-2.1-0.9-2.1-2.1s0.9-2.1,2.1-2.1c1.1,0,2.1,0.9,2.1,2.1S260.9,370.2,259.7,370.2"/>
<path class="st7" d="M203.5,370.2c-1.1,0-2.1-0.9-2.1-2.1s0.9-2.1,2.1-2.1c1.1,0,2.1,0.9,2.1,2.1S204.6,370.2,203.5,370.2"/>
<path class="st6" d="M119,372.4c-1.1,0-2.1-0.9-2.1-2.1s0.9-2.1,2.1-2.1s2.1,0.9,2.1,2.1S120.2,372.4,119,372.4"/>
<path class="st6" d="M147.2,374.5c-1.1,0-2.1-0.9-2.1-2.1c0-1.1,0.9-2.1,2.1-2.1c1.1,0,2.1,0.9,2.1,2.1
	C149.2,373.5,148.3,374.5,147.2,374.5"/>
<path class="st7" d="M119,374.5c-1.1,0-2.1-0.9-2.1-2.1c0-1.1,0.9-2.1,2.1-2.1s2.1,0.9,2.1,2.1C121.1,373.5,120.2,374.5,119,374.5"
	/>
<path class="st6" d="M175.3,376.6c-1.1,0-2.1-0.9-2.1-2.1s0.9-2.1,2.1-2.1c1.1,0,2.1,0.9,2.1,2.1S176.5,376.6,175.3,376.6"/>
<path class="st7" d="M119,376.6c-1.1,0-2.1-0.9-2.1-2.1s0.9-2.1,2.1-2.1s2.1,0.9,2.1,2.1S120.2,376.6,119,376.6"/>
<path class="st6" d="M119,378.8c-1.1,0-2.1-0.9-2.1-2.1s0.9-2.1,2.1-2.1s2.1,0.9,2.1,2.1S120.2,378.8,119,378.8"/>
<path class="st7" d="M203.5,378.8c-1.1,0-2.1-0.9-2.1-2.1s0.9-2.1,2.1-2.1c1.1,0,2.1,0.9,2.1,2.1S204.6,378.8,203.5,378.8"/>
<path class="st6" d="M119,381c-1.1,0-2.1-0.9-2.1-2.1c0-1.1,0.9-2.1,2.1-2.1s2.1,0.9,2.1,2.1C121.1,380,120.2,381,119,381"/>
<path class="st7" d="M175.3,381c-1.1,0-2.1-0.9-2.1-2.1c0-1.1,0.9-2.1,2.1-2.1c1.1,0,2.1,0.9,2.1,2.1C177.3,380,176.5,381,175.3,381
	"/>
<path class="st6" d="M147.2,383c-1.1,0-2.1-0.9-2.1-2.1s0.9-2.1,2.1-2.1c1.1,0,2.1,0.9,2.1,2.1S148.3,383,147.2,383"/>
<path class="st7" d="M119,383c-1.1,0-2.1-0.9-2.1-2.1s0.9-2.1,2.1-2.1s2.1,0.9,2.1,2.1S120.2,383,119,383"/>
<path class="st6" d="M119,385.2c-1.1,0-2.1-0.9-2.1-2.1s0.9-2.1,2.1-2.1s2.1,0.9,2.1,2.1S120.2,385.2,119,385.2"/>
<path class="st7" d="M175.3,385.2c-1.1,0-2.1-0.9-2.1-2.1s0.9-2.1,2.1-2.1c1.1,0,2.1,0.9,2.1,2.1S176.5,385.2,175.3,385.2"/>
<path class="st6" d="M147.2,387.4c-1.1,0-2.1-0.9-2.1-2.1s0.9-2.1,2.1-2.1c1.1,0,2.1,0.9,2.1,2.1S148.3,387.4,147.2,387.4"/>
<path class="st7" d="M119,387.4c-1.1,0-2.1-0.9-2.1-2.1s0.9-2.1,2.1-2.1s2.1,0.9,2.1,2.1S120.2,387.4,119,387.4"/>
<path class="st6" d="M119,389.5c-1.1,0-2.1-0.9-2.1-2.1c0-1.1,0.9-2.1,2.1-2.1s2.1,0.9,2.1,2.1C121.1,388.5,120.2,389.5,119,389.5"
	/>
<path class="st7" d="M119,389.5c-1.1,0-2.1-0.9-2.1-2.1c0-1.1,0.9-2.1,2.1-2.1s2.1,0.9,2.1,2.1C121.1,388.5,120.2,389.5,119,389.5"
	/>
<path class="st7" d="M119,391.6c-1.1,0-2.1-0.9-2.1-2.1s0.9-2.1,2.1-2.1s2.1,0.9,2.1,2.1S120.2,391.6,119,391.6"/>
<path class="st6" d="M119,393.8c-1.1,0-2.1-0.9-2.1-2.1s0.9-2.1,2.1-2.1s2.1,0.9,2.1,2.1S120.2,393.8,119,393.8"/>
<path class="st7" d="M119,396c-1.1,0-2.1-0.9-2.1-2.1c0-1.1,0.9-2.1,2.1-2.1s2.1,0.9,2.1,2.1C121.1,395,120.2,396,119,396"/>
<path class="st6" d="M119,398c-1.1,0-2.1-0.9-2.1-2.1s0.9-2.1,2.1-2.1s2.1,0.9,2.1,2.1S120.2,398,119,398"/>
<path class="st6" d="M259.7,400.2c-1.1,0-2.1-0.9-2.1-2.1s0.9-2.1,2.1-2.1c1.1,0,2.1,0.9,2.1,2.1S260.9,400.2,259.7,400.2"/>
<path class="st7" d="M119,400.2c-1.1,0-2.1-0.9-2.1-2.1s0.9-2.1,2.1-2.1s2.1,0.9,2.1,2.1S120.2,400.2,119,400.2"/>
<path class="st6" d="M119,402.4c-1.1,0-2.1-0.9-2.1-2.1s0.9-2.1,2.1-2.1s2.1,0.9,2.1,2.1S120.2,402.4,119,402.4"/>
<path class="st7" d="M316,402.4c-1.1,0-2.1-0.9-2.1-2.1s0.9-2.1,2.1-2.1s2.1,0.9,2.1,2.1S317.1,402.4,316,402.4"/>
<path class="st7" d="M287.9,404.5c-1.1,0-2.1-0.9-2.1-2.1c0-1.1,0.9-2.1,2.1-2.1s2.1,0.9,2.1,2.1C289.9,403.5,289,404.5,287.9,404.5
	"/>
<path class="st6" d="M119,406.6c-1.1,0-2.1-0.9-2.1-2.1s0.9-2.1,2.1-2.1s2.1,0.9,2.1,2.1S120.2,406.6,119,406.6"/>
<path class="st7" d="M287.9,406.6c-1.1,0-2.1-0.9-2.1-2.1s0.9-2.1,2.1-2.1s2.1,0.9,2.1,2.1S289,406.6,287.9,406.6"/>
<path class="st6" d="M119,408.8c-1.1,0-2.1-0.9-2.1-2.1s0.9-2.1,2.1-2.1s2.1,0.9,2.1,2.1S120.2,408.8,119,408.8"/>
<path class="st7" d="M287.9,408.8c-1.1,0-2.1-0.9-2.1-2.1s0.9-2.1,2.1-2.1s2.1,0.9,2.1,2.1S289,408.8,287.9,408.8"/>
<path class="st6" d="M119,411c-1.1,0-2.1-0.9-2.1-2.1c0-1.1,0.9-2.1,2.1-2.1s2.1,0.9,2.1,2.1C121.1,410,120.2,411,119,411"/>
<path class="st6" d="M119,413c-1.1,0-2.1-0.9-2.1-2.1c0-1.1,0.9-2.1,2.1-2.1s2.1,0.9,2.1,2.1S120.2,413,119,413"/>
<path class="st7" d="M119,413c-1.1,0-2.1-0.9-2.1-2.1c0-1.1,0.9-2.1,2.1-2.1s2.1,0.9,2.1,2.1S120.2,413,119,413"/>
<path class="st6" d="M119,415.2c-1.1,0-2.1-0.9-2.1-2.1s0.9-2.1,2.1-2.1s2.1,0.9,2.1,2.1S120.2,415.2,119,415.2"/>
<path class="st7" d="M259.7,415.2c-1.1,0-2.1-0.9-2.1-2.1s0.9-2.1,2.1-2.1c1.1,0,2.1,0.9,2.1,2.1S260.9,415.2,259.7,415.2"/>
<path class="st6" d="M147.2,417.4c-1.1,0-2.1-0.9-2.1-2.1c0-1.1,0.9-2.1,2.1-2.1c1.1,0,2.1,0.9,2.1,2.1
	C149.2,416.5,148.3,417.4,147.2,417.4"/>
<path class="st7" d="M119,417.4c-1.1,0-2.1-0.9-2.1-2.1c0-1.1,0.9-2.1,2.1-2.1s2.1,0.9,2.1,2.1S120.2,417.4,119,417.4"/>
<path class="st6" d="M119,419.5c-1.1,0-2.1-0.9-2.1-2.1c0-1.1,0.9-2.1,2.1-2.1s2.1,0.9,2.1,2.1C121.1,418.5,120.2,419.5,119,419.5"
	/>
<path class="st7" d="M119,419.5c-1.1,0-2.1-0.9-2.1-2.1c0-1.1,0.9-2.1,2.1-2.1s2.1,0.9,2.1,2.1C121.1,418.5,120.2,419.5,119,419.5"
	/>
<path class="st7" d="M231.6,421.6c-1.1,0-2.1-0.9-2.1-2.1s0.9-2.1,2.1-2.1c1.1,0,2.1,0.9,2.1,2.1S232.7,421.6,231.6,421.6"/>
<path class="st6" d="M119,423.8c-1.1,0-2.1-0.9-2.1-2.1s0.9-2.1,2.1-2.1s2.1,0.9,2.1,2.1S120.2,423.8,119,423.8"/>
<path class="st6" d="M119,426c-1.1,0-2.1-0.9-2.1-2.1c0-1.1,0.9-2.1,2.1-2.1s2.1,0.9,2.1,2.1C121.1,425,120.2,426,119,426"/>
<path class="st7" d="M147.2,426c-1.1,0-2.1-0.9-2.1-2.1c0-1.1,0.9-2.1,2.1-2.1c1.1,0,2.1,0.9,2.1,2.1C149.2,425,148.3,426,147.2,426
	"/>
<path class="st6" d="M147.2,428c-1.1,0-2.1-0.9-2.1-2.1c0-1.1,0.9-2.1,2.1-2.1c1.1,0,2.1,0.9,2.1,2.1
	C149.2,427.2,148.3,428,147.2,428"/>
<path class="st7" d="M119,428c-1.1,0-2.1-0.9-2.1-2.1c0-1.1,0.9-2.1,2.1-2.1s2.1,0.9,2.1,2.1S120.2,428,119,428"/>
<path class="st7" d="M119,430.2c-1.1,0-2.1-0.9-2.1-2.1s0.9-2.1,2.1-2.1s2.1,0.9,2.1,2.1S120.2,430.2,119,430.2"/>
<path class="st7" d="M119,432.4c-1.1,0-2.1-0.9-2.1-2.1c0-1.1,0.9-2.1,2.1-2.1s2.1,0.9,2.1,2.1S120.2,432.4,119,432.4"/>
<path class="st6" d="M119,434.5c-1.1,0-2.1-0.9-2.1-2.1c0-1.1,0.9-2.1,2.1-2.1s2.1,0.9,2.1,2.1C121.1,433.5,120.2,434.5,119,434.5"
	/>
<path class="st7" d="M147.2,434.5c-1.1,0-2.1-0.9-2.1-2.1c0-1.1,0.9-2.1,2.1-2.1c1.1,0,2.1,0.9,2.1,2.1
	C149.2,433.5,148.3,434.5,147.2,434.5"/>
<path class="st7" d="M119,436.6c-1.1,0-2.1-0.9-2.1-2.1s0.9-2.1,2.1-2.1s2.1,0.9,2.1,2.1S120.2,436.6,119,436.6"/>
<path class="st7" d="M119,438.8c-1.1,0-2.1-0.9-2.1-2.1s0.9-2.1,2.1-2.1s2.1,0.9,2.1,2.1S120.2,438.8,119,438.8"/>
<path class="st7" d="M119,441c-1.1,0-2.1-0.9-2.1-2.1c0-1.1,0.9-2.1,2.1-2.1s2.1,0.9,2.1,2.1C121.1,440,120.2,441,119,441"/>
<path class="st7" d="M119,443c-1.1,0-2.1-0.9-2.1-2.1c0-1.1,0.9-2.1,2.1-2.1s2.1,0.9,2.1,2.1S120.2,443,119,443"/>
<path class="st7" d="M119,445.2c-1.1,0-2.1-0.9-2.1-2.1s0.9-2.1,2.1-2.1s2.1,0.9,2.1,2.1S120.2,445.2,119,445.2"/>
<path class="st7" d="M119,447.4c-1.1,0-2.1-0.9-2.1-2.1c0-1.1,0.9-2.1,2.1-2.1s2.1,0.9,2.1,2.1S120.2,447.4,119,447.4"/>
<path class="st7" d="M119,449.5c-1.1,0-2.1-0.9-2.1-2.1c0-1.1,0.9-2.1,2.1-2.1s2.1,0.9,2.1,2.1C121.1,448.5,120.2,449.5,119,449.5"
	/>
<path class="st7" d="M119,451.6c-1.1,0-2.1-0.9-2.1-2.1s0.9-2.1,2.1-2.1s2.1,0.9,2.1,2.1S120.2,451.6,119,451.6"/>
<path class="st7" d="M119,453.8c-1.1,0-2.1-0.9-2.1-2.1s0.9-2.1,2.1-2.1s2.1,0.9,2.1,2.1S120.2,453.8,119,453.8"/>
<path class="st7" d="M259.7,456c-1.1,0-2.1-0.9-2.1-2.1c0-1.1,0.9-2.1,2.1-2.1c1.1,0,2.1,0.9,2.1,2.1C261.7,455,260.9,456,259.7,456
	"/>
<path class="st7" d="M119,458c-1.1,0-2.1-0.9-2.1-2.1c0-1.1,0.9-2.1,2.1-2.1s2.1,0.9,2.1,2.1S120.2,458,119,458"/>
<path class="st7" d="M119,460.2c-1.1,0-2.1-0.9-2.1-2.1s0.9-2.1,2.1-2.1s2.1,0.9,2.1,2.1S120.2,460.2,119,460.2"/>
<path class="st7" d="M147.2,462.4c-1.1,0-2.1-0.9-2.1-2.1c0-1.1,0.9-2.1,2.1-2.1c1.1,0,2.1,0.9,2.1,2.1
	C149.2,461.5,148.3,462.4,147.2,462.4"/>
<path class="st7" d="M119,464.5c-1.1,0-2.1-0.9-2.1-2.1c0-1.1,0.9-2.1,2.1-2.1s2.1,0.9,2.1,2.1C121.1,463.5,120.2,464.5,119,464.5"
	/>
<path class="st7" d="M119,466.6c-1.1,0-2.1-0.9-2.1-2.1s0.9-2.1,2.1-2.1s2.1,0.9,2.1,2.1S120.2,466.6,119,466.6"/>
<path class="st7" d="M147.2,468.8c-1.1,0-2.1-0.9-2.1-2.1s0.9-2.1,2.1-2.1c1.1,0,2.1,0.9,2.1,2.1S148.3,468.8,147.2,468.8"/>
<path class="st7" d="M119,473c-1.1,0-2.1-0.9-2.1-2.1c0-1.1,0.9-2.1,2.1-2.1s2.1,0.9,2.1,2.1S120.2,473,119,473"/>
<path class="st7" d="M119,475.2c-1.1,0-2.1-0.9-2.1-2.1s0.9-2.1,2.1-2.1s2.1,0.9,2.1,2.1S120.2,475.2,119,475.2"/>
<path class="st7" d="M119,477.4c-1.1,0-2.1-0.9-2.1-2.1c0-1.1,0.9-2.1,2.1-2.1s2.1,0.9,2.1,2.1S120.2,477.4,119,477.4"/>
<path class="st7" d="M119,479.5c-1.1,0-2.1-0.9-2.1-2.1c0-1.1,0.9-2.1,2.1-2.1s2.1,0.9,2.1,2.1C121.1,478.5,120.2,479.5,119,479.5"
	/>
<path class="st6" d="M316,481.6c-1.1,0-2.1-0.9-2.1-2.1s0.9-2.1,2.1-2.1s2.1,0.9,2.1,2.1S317.1,481.6,316,481.6"/>
<path class="st7" d="M119,481.6c-1.1,0-2.1-0.9-2.1-2.1s0.9-2.1,2.1-2.1s2.1,0.9,2.1,2.1S120.2,481.6,119,481.6"/>
<path class="st7" d="M119,483.8c-1.1,0-2.1-0.9-2.1-2.1s0.9-2.1,2.1-2.1s2.1,0.9,2.1,2.1S120.2,483.8,119,483.8"/>
<path class="st7" d="M119,486c-1.1,0-2.1-0.9-2.1-2.1c0-1.1,0.9-2.1,2.1-2.1s2.1,0.9,2.1,2.1C121.1,485,120.2,486,119,486"/>
<path class="st7" d="M119,488c-1.1,0-2.1-0.9-2.1-2.1c0-1.1,0.9-2.1,2.1-2.1s2.1,0.9,2.1,2.1S120.2,488,119,488"/>
<path class="st7" d="M147.2,490.2c-1.1,0-2.1-0.9-2.1-2.1s0.9-2.1,2.1-2.1c1.1,0,2.1,0.9,2.1,2.1S148.3,490.2,147.2,490.2"/>
<path class="st7" d="M119,492.4c-1.1,0-2.1-0.9-2.1-2.1c0-1.1,0.9-2.1,2.1-2.1s2.1,0.9,2.1,2.1S120.2,492.4,119,492.4"/>
<path class="st7" d="M119,494.5c-1.1,0-2.1-0.9-2.1-2.1c0-1.1,0.9-2.1,2.1-2.1s2.1,0.9,2.1,2.1C121.1,493.5,120.2,494.5,119,494.5"
	/>
<path class="st7" d="M147.2,496.6c-1.1,0-2.1-0.9-2.1-2.1s0.9-2.1,2.1-2.1c1.1,0,2.1,0.9,2.1,2.1S148.3,496.6,147.2,496.6"/>
<path class="st7" d="M119,498.8c-1.1,0-2.1-0.9-2.1-2.1s0.9-2.1,2.1-2.1s2.1,0.9,2.1,2.1S120.2,498.8,119,498.8"/>
<path class="st7" d="M119,501c-1.1,0-2.1-0.9-2.1-2.1c0-1.1,0.9-2.1,2.1-2.1s2.1,0.9,2.1,2.1C121.1,500,120.2,501,119,501"/>
<path class="st7" d="M119,503c-1.1,0-2.1-0.9-2.1-2.1c0-1.1,0.9-2.1,2.1-2.1s2.1,0.9,2.1,2.1S120.2,503,119,503"/>
<path class="st7" d="M119,507.4c-1.1,0-2.1-0.9-2.1-2.1c0-1.1,0.9-2.1,2.1-2.1s2.1,0.9,2.1,2.1S120.2,507.4,119,507.4"/>
<path class="st7" d="M119,509.5c-1.1,0-2.1-0.9-2.1-2.1c0-1.1,0.9-2.1,2.1-2.1s2.1,0.9,2.1,2.1C121.1,508.5,120.2,509.5,119,509.5"
	/>
<path class="st7" d="M119,511.6c-1.1,0-2.1-0.9-2.1-2.1s0.9-2.1,2.1-2.1s2.1,0.9,2.1,2.1S120.2,511.6,119,511.6"/>
<path class="st7" d="M147.2,513.8c-1.1,0-2.1-0.9-2.1-2.1s0.9-2.1,2.1-2.1c1.1,0,2.1,0.9,2.1,2.1
	C149.3,512.9,148.3,513.8,147.2,513.8"/>
<path class="st7" d="M147.2,516c-1.1,0-2.1-0.9-2.1-2.1c0-1.1,0.9-2.1,2.1-2.1c1.1,0,2.1,0.9,2.1,2.1C149.2,515,148.3,516,147.2,516
	"/>
<path class="st7" d="M175.3,518c-1.1,0-2.1-0.9-2.1-2.1c0-1.1,0.9-2.1,2.1-2.1c1.1,0,2.1,0.9,2.1,2.1
	C177.3,517.2,176.5,518,175.3,518"/>
<path class="st7" d="M175.3,520.2c-1.1,0-2.1-0.9-2.1-2.1s0.9-2.1,2.1-2.1c1.1,0,2.1,0.9,2.1,2.1S176.5,520.2,175.3,520.2"/>
<path class="st7" d="M259.7,522.3c-1.1,0-2.1-0.9-2.1-2.1c0-1.1,0.9-2.1,2.1-2.1c1.1,0,2.1,0.9,2.1,2.1
	C261.7,521.5,260.9,522.3,259.7,522.3"/>
<path class="st7" d="M147.2,524.5c-1.1,0-2.1-0.9-2.1-2.1c0-1.1,0.9-2.1,2.1-2.1c1.1,0,2.1,0.9,2.1,2.1
	C149.2,523.5,148.3,524.5,147.2,524.5"/>
<path class="st7" d="M119,526.7c-1.1,0-2.1-0.9-2.1-2.1c0-1.1,0.9-2.1,2.1-2.1s2.1,0.9,2.1,2.1C121.1,525.7,120.2,526.7,119,526.7"
	/>
<path class="st7" d="M119,528.8c-1.1,0-2.1-0.9-2.1-2.1c0-1.1,0.9-2.1,2.1-2.1s2.1,0.9,2.1,2.1S120.2,528.8,119,528.8"/>
<path class="st7" d="M119,531c-1.1,0-2.1-0.9-2.1-2.1c0-1.1,0.9-2.1,2.1-2.1s2.1,0.9,2.1,2.1C121.1,530,120.2,531,119,531"/>
<path class="st7" d="M119,533c-1.1,0-2.1-0.9-2.1-2.1c0-1.1,0.9-2.1,2.1-2.1s2.1,0.9,2.1,2.1C121.1,532.2,120.2,533,119,533"/>
<path class="st7" d="M147.2,535.2c-1.1,0-2.1-0.9-2.1-2.1s0.9-2.1,2.1-2.1c1.1,0,2.1,0.9,2.1,2.1S148.3,535.2,147.2,535.2"/>
<path class="st7" d="M119,537.3c-1.1,0-2.1-0.9-2.1-2.1c0-1.1,0.9-2.1,2.1-2.1s2.1,0.9,2.1,2.1C121.1,536.5,120.2,537.3,119,537.3"
	/>
<path class="st7" d="M175.3,539.5c-1.1,0-2.1-0.9-2.1-2.1c0-1.1,0.9-2.1,2.1-2.1c1.1,0,2.1,0.9,2.1,2.1
	C177.3,538.5,176.5,539.5,175.3,539.5"/>
<path class="st7" d="M147.2,541.7c-1.1,0-2.1-0.9-2.1-2.1c0-1.1,0.9-2.1,2.1-2.1c1.1,0,2.1,0.9,2.1,2.1
	C149.2,540.7,148.3,541.7,147.2,541.7"/>
<path class="st7" d="M147.2,543.8c-1.1,0-2.1-0.9-2.1-2.1c0-1.1,0.9-2.1,2.1-2.1c1.1,0,2.1,0.9,2.1,2.1
	C149.2,542.8,148.3,543.8,147.2,543.8"/>
<path class="st7" d="M203.5,546c-1.1,0-2.1-0.9-2.1-2.1c0-1.1,0.9-2.1,2.1-2.1c1.1,0,2.1,0.9,2.1,2.1C205.6,545,204.6,546,203.5,546
	"/>
<path class="st7" d="M119,548c-1.1,0-2.1-0.9-2.1-2.1c0-1.1,0.9-2.1,2.1-2.1s2.1,0.9,2.1,2.1C121.1,547.2,120.2,548,119,548"/>
<path class="st7" d="M231.6,550.2c-1.1,0-2.1-0.9-2.1-2.1s0.9-2.1,2.1-2.1c1.1,0,2.1,0.9,2.1,2.1S232.7,550.2,231.6,550.2"/>
<path class="st7" d="M175.3,552.3c-1.1,0-2.1-0.9-2.1-2.1c0-1.1,0.9-2.1,2.1-2.1c1.1,0,2.1,0.9,2.1,2.1
	C177.3,551.5,176.5,552.3,175.3,552.3"/>
<path class="st7" d="M175.3,556.7c-1.1,0-2.1-0.9-2.1-2.1c0-1.1,0.9-2.1,2.1-2.1c1.1,0,2.1,0.9,2.1,2.1
	C177.3,555.7,176.5,556.7,175.3,556.7"/>
<path class="st7" d="M147.2,558.8c-1.1,0-2.1-0.9-2.1-2.1c0-1.1,0.9-2.1,2.1-2.1c1.1,0,2.1,0.9,2.1,2.1
	C149.2,557.8,148.3,558.8,147.2,558.8"/>
<path class="st7" d="M175.3,561c-1.1,0-2.1-0.9-2.1-2.1c0-1.1,0.9-2.1,2.1-2.1c1.1,0,2.1,0.9,2.1,2.1C177.3,560,176.5,561,175.3,561
	"/>
<path class="st7" d="M203.5,563c-1.1,0-2.1-0.9-2.1-2.1c0-1.1,0.9-2.1,2.1-2.1c1.1,0,2.1,0.9,2.1,2.1
	C205.6,562.2,204.6,563,203.5,563"/>
<path class="st7" d="M119,565.2c-1.1,0-2.1-0.9-2.1-2.1s0.9-2.1,2.1-2.1s2.1,0.9,2.1,2.1S120.2,565.2,119,565.2"/>
<path class="st7" d="M119,567.3c-1.1,0-2.1-0.9-2.1-2.1c0-1.1,0.9-2.1,2.1-2.1s2.1,0.9,2.1,2.1C121.1,566.5,120.2,567.3,119,567.3"
	/>
<path class="st6" d="M231.6,569.5c-1.1,0-2.1-0.9-2.1-2.1c0-1.1,0.9-2.1,2.1-2.1c1.1,0,2.1,0.9,2.1,2.1
	C233.6,568.5,232.7,569.5,231.6,569.5"/>
<path class="st7" d="M119,569.5c-1.1,0-2.1-0.9-2.1-2.1c0-1.1,0.9-2.1,2.1-2.1s2.1,0.9,2.1,2.1S120.2,569.5,119,569.5"/>
<path class="st6" d="M119,571.7c-1.1,0-2.1-0.9-2.1-2.1c0-1.1,0.9-2.1,2.1-2.1s2.1,0.9,2.1,2.1C121.1,570.7,120.2,571.7,119,571.7"
	/>
<path class="st7" d="M119,571.7c-1.1,0-2.1-0.9-2.1-2.1c0-1.1,0.9-2.1,2.1-2.1s2.1,0.9,2.1,2.1C121.1,570.7,120.2,571.7,119,571.7"
	/>
<path class="st7" d="M203.5,573.8c-1.1,0-2.1-0.9-2.1-2.1c0-1.1,0.9-2.1,2.1-2.1c1.1,0,2.1,0.9,2.1,2.1S204.6,573.8,203.5,573.8"/>
<path class="st7" d="M147.2,578c-1.1,0-2.1-0.9-2.1-2.1c0-1.1,0.9-2.1,2.1-2.1c1.1,0,2.1,0.9,2.1,2.1
	C149.2,577.2,148.3,578,147.2,578"/>
<path class="st7" d="M231.6,580.2c-1.1,0-2.1-0.9-2.1-2.1s0.9-2.1,2.1-2.1c1.1,0,2.1,0.9,2.1,2.1S232.7,580.2,231.6,580.2"/>
<path class="st7" d="M203.5,582.3c-1.1,0-2.1-0.9-2.1-2.1c0-1.1,0.9-2.1,2.1-2.1c1.1,0,2.1,0.9,2.1,2.1
	C205.6,581.5,204.6,582.3,203.5,582.3"/>
<path class="st7" d="M119,584.5c-1.1,0-2.1-0.9-2.1-2.1c0-1.1,0.9-2.1,2.1-2.1s2.1,0.9,2.1,2.1S120.2,584.5,119,584.5"/>
<path class="st7" d="M119,586.7c-1.1,0-2.1-0.9-2.1-2.1c0-1.1,0.9-2.1,2.1-2.1s2.1,0.9,2.1,2.1C121.1,585.7,120.2,586.7,119,586.7"
	/>
<path class="st6" d="M119,588.8c-1.1,0-2.1-0.9-2.1-2.1c0-1.1,0.9-2.1,2.1-2.1s2.1,0.9,2.1,2.1S120.2,588.8,119,588.8"/>
<path class="st7" d="M147.2,588.8c-1.1,0-2.1-0.9-2.1-2.1c0-1.1,0.9-2.1,2.1-2.1c1.1,0,2.1,0.9,2.1,2.1
	C149.2,587.8,148.3,588.8,147.2,588.8"/>
<path class="st7" d="M231.6,591c-1.1,0-2.1-0.9-2.1-2.1c0-1.1,0.9-2.1,2.1-2.1c1.1,0,2.1,0.9,2.1,2.1C233.6,590,232.7,591,231.6,591
	"/>
<path class="st6" d="M203.5,593c-1.1,0-2.1-0.9-2.1-2.1c0-1.1,0.9-2.1,2.1-2.1c1.1,0,2.1,0.9,2.1,2.1
	C205.6,592.2,204.6,593,203.5,593"/>
<path class="st7" d="M119,593c-1.1,0-2.1-0.9-2.1-2.1c0-1.1,0.9-2.1,2.1-2.1s2.1,0.9,2.1,2.1C121.1,592.2,120.2,593,119,593"/>
<path class="st6" d="M287.9,595.2c-1.1,0-2.1-0.9-2.1-2.1s0.9-2.1,2.1-2.1s2.1,0.9,2.1,2.1S289,595.2,287.9,595.2"/>
<path class="st7" d="M147.2,595.2c-1.1,0-2.1-0.9-2.1-2.1s0.9-2.1,2.1-2.1c1.1,0,2.1,0.9,2.1,2.1S148.3,595.2,147.2,595.2"/>
<path class="st7" d="M119,597.3c-1.1,0-2.1-0.9-2.1-2.1c0-1.1,0.9-2.1,2.1-2.1s2.1,0.9,2.1,2.1C121.1,596.5,120.2,597.3,119,597.3"
	/>
<path class="st6" d="M316,599.5c-1.1,0-2.1-0.9-2.1-2.1c0-1.1,0.9-2.1,2.1-2.1s2.1,0.9,2.1,2.1C318.1,598.5,317.1,599.5,316,599.5"
	/>
<path class="st7" d="M147.2,599.5c-1.1,0-2.1-0.9-2.1-2.1c0-1.1,0.9-2.1,2.1-2.1c1.1,0,2.1,0.9,2.1,2.1
	C149.2,598.5,148.3,599.5,147.2,599.5"/>
<path class="st7" d="M175.3,601.7c-1.1,0-2.1-0.9-2.1-2.1c0-1.1,0.9-2.1,2.1-2.1c1.1,0,2.1,0.9,2.1,2.1
	C177.3,600.7,176.5,601.7,175.3,601.7"/>
<path class="st6" d="M175.3,603.8c-1.1,0-2.1-0.9-2.1-2.1c0-1.1,0.9-2.1,2.1-2.1c1.1,0,2.1,0.9,2.1,2.1
	C177.3,602.8,176.5,603.8,175.3,603.8"/>
<path class="st7" d="M147.2,603.8c-1.1,0-2.1-0.9-2.1-2.1c0-1.1,0.9-2.1,2.1-2.1c1.1,0,2.1,0.9,2.1,2.1
	C149.2,602.8,148.3,603.8,147.2,603.8"/>
<path class="st7" d="M175.3,606c-1.1,0-2.1-0.9-2.1-2.1c0-1.1,0.9-2.1,2.1-2.1c1.1,0,2.1,0.9,2.1,2.1C177.3,605,176.5,606,175.3,606
	"/>
<path class="st7" d="M203.5,608c-1.1,0-2.1-0.9-2.1-2.1c0-1.1,0.9-2.1,2.1-2.1c1.1,0,2.1,0.9,2.1,2.1
	C205.6,607.2,204.6,608,203.5,608"/>
<path class="st7" d="M231.6,610.2c-1.1,0-2.1-0.9-2.1-2.1s0.9-2.1,2.1-2.1c1.1,0,2.1,0.9,2.1,2.1S232.7,610.2,231.6,610.2"/>
<path class="st7" d="M287.9,612.3c-1.1,0-2.1-0.9-2.1-2.1c0-1.1,0.9-2.1,2.1-2.1s2.1,0.9,2.1,2.1C289.9,611.5,289,612.3,287.9,612.3
	"/>
<path class="st7" d="M119,614.5c-1.1,0-2.1-0.9-2.1-2.1c0-1.1,0.9-2.1,2.1-2.1s2.1,0.9,2.1,2.1S120.2,614.5,119,614.5"/>
<path class="st7" d="M175.3,616.7c-1.1,0-2.1-0.9-2.1-2.1c0-1.1,0.9-2.1,2.1-2.1c1.1,0,2.1,0.9,2.1,2.1
	C177.3,615.7,176.5,616.7,175.3,616.7"/>
<path class="st6" d="M203.5,618.8c-1.1,0-2.1-0.9-2.1-2.1c0-1.1,0.9-2.1,2.1-2.1c1.1,0,2.1,0.9,2.1,2.1S204.6,618.8,203.5,618.8"/>
<path class="st7" d="M316,618.8c-1.1,0-2.1-0.9-2.1-2.1c0-1.1,0.9-2.1,2.1-2.1s2.1,0.9,2.1,2.1C318.1,617.8,317.1,618.8,316,618.8"
	/>
<path class="st6" d="M259.7,621c-1.1,0-2.1-0.9-2.1-2.1c0-1.1,0.9-2.1,2.1-2.1c1.1,0,2.1,0.9,2.1,2.1C261.7,620,260.9,621,259.7,621
	"/>
<path class="st7" d="M147.2,621c-1.1,0-2.1-0.9-2.1-2.1c0-1.1,0.9-2.1,2.1-2.1c1.1,0,2.1,0.9,2.1,2.1C149.2,620,148.3,621,147.2,621
	"/>
<path class="st7" d="M203.5,623c-1.1,0-2.1-0.9-2.1-2.1c0-1.1,0.9-2.1,2.1-2.1c1.1,0,2.1,0.9,2.1,2.1
	C205.6,622.2,204.6,623,203.5,623"/>
<path class="st7" d="M119,625.2c-1.1,0-2.1-0.9-2.1-2.1s0.9-2.1,2.1-2.1s2.1,0.9,2.1,2.1S120.2,625.2,119,625.2"/>
<path class="st7" d="M175.3,627.3c-1.1,0-2.1-0.9-2.1-2.1c0-1.1,0.9-2.1,2.1-2.1c1.1,0,2.1,0.9,2.1,2.1
	C177.3,626.5,176.5,627.3,175.3,627.3"/>
<path class="st6" d="M175.3,629.5c-1.1,0-2.1-0.9-2.1-2.1c0-1.1,0.9-2.1,2.1-2.1c1.1,0,2.1,0.9,2.1,2.1
	C177.3,628.5,176.5,629.5,175.3,629.5"/>
<path class="st7" d="M175.3,631.7c-1.1,0-2.1-0.9-2.1-2.1c0-1.1,0.9-2.1,2.1-2.1c1.1,0,2.1,0.9,2.1,2.1
	C177.3,630.7,176.5,631.7,175.3,631.7"/>
<path class="st7" d="M119,633.8c-1.1,0-2.1-0.9-2.1-2.1c0-1.1,0.9-2.1,2.1-2.1s2.1,0.9,2.1,2.1S120.2,633.8,119,633.8"/>
<path class="st7" d="M119,636c-1.1,0-2.1-0.9-2.1-2.1c0-1.1,0.9-2.1,2.1-2.1s2.1,0.9,2.1,2.1C121.1,635,120.2,636,119,636"/>
<path class="st7" d="M147.2,638c-1.1,0-2.1-0.9-2.1-2.1c0-1.1,0.9-2.1,2.1-2.1c1.1,0,2.1,0.9,2.1,2.1
	C149.2,637.2,148.3,638,147.2,638"/>
<path class="st7" d="M119,640.2c-1.1,0-2.1-0.9-2.1-2.1s0.9-2.1,2.1-2.1s2.1,0.9,2.1,2.1S120.2,640.2,119,640.2"/>
<path class="st7" d="M175.3,642.3c-1.1,0-2.1-0.9-2.1-2.1c0-1.1,0.9-2.1,2.1-2.1c1.1,0,2.1,0.9,2.1,2.1
	C177.3,641.5,176.5,642.3,175.3,642.3"/>
<path class="st7" d="M119,644.5c-1.1,0-2.1-0.9-2.1-2.1c0-1.1,0.9-2.1,2.1-2.1s2.1,0.9,2.1,2.1S120.2,644.5,119,644.5"/>
<path class="st7" d="M119,646.7c-1.1,0-2.1-0.9-2.1-2.1c0-1.1,0.9-2.1,2.1-2.1s2.1,0.9,2.1,2.1C121.1,645.7,120.2,646.7,119,646.7"
	/>
<path class="st7" d="M203.5,648.8c-1.1,0-2.1-0.9-2.1-2.1c0-1.1,0.9-2.1,2.1-2.1c1.1,0,2.1,0.9,2.1,2.1S204.6,648.8,203.5,648.8"/>
<path class="st7" d="M231.6,651c-1.1,0-2.1-0.9-2.1-2.1c0-1.1,0.9-2.1,2.1-2.1c1.1,0,2.1,0.9,2.1,2.1C233.6,650,232.7,651,231.6,651
	"/>
<path class="st7" d="M175.3,653c-1.1,0-2.1-0.9-2.1-2.1c0-1.1,0.9-2.1,2.1-2.1c1.1,0,2.1,0.9,2.1,2.1
	C177.3,652.2,176.5,653,175.3,653"/>
<path class="st7" d="M231.6,655.2c-1.1,0-2.1-0.9-2.1-2.1s0.9-2.1,2.1-2.1c1.1,0,2.1,0.9,2.1,2.1S232.7,655.2,231.6,655.2"/>
<path class="st7" d="M203.5,657.3c-1.1,0-2.1-0.9-2.1-2.1c0-1.1,0.9-2.1,2.1-2.1c1.1,0,2.1,0.9,2.1,2.1
	C205.6,656.5,204.6,657.3,203.5,657.3"/>
<path class="st7" d="M119,659.5c-1.1,0-2.1-0.9-2.1-2.1c0-1.1,0.9-2.1,2.1-2.1s2.1,0.9,2.1,2.1S120.2,659.5,119,659.5"/>
<path class="st6" d="M119,661.7c-1.1,0-2.1-0.9-2.1-2.1c0-1.1,0.9-2.1,2.1-2.1s2.1,0.9,2.1,2.1C121.1,660.7,120.2,661.7,119,661.7"
	/>
<path class="st7" d="M147.2,661.7c-1.1,0-2.1-0.9-2.1-2.1c0-1.1,0.9-2.1,2.1-2.1c1.1,0,2.1,0.9,2.1,2.1
	C149.2,660.7,148.3,661.7,147.2,661.7"/>
<path class="st7" d="M231.6,668c-1.1,0-2.1-0.9-2.1-2.1c0-1.1,0.9-2.1,2.1-2.1c1.1,0,2.1,0.9,2.1,2.1
	C233.6,667.2,232.7,668,231.6,668"/>
<path class="st6" d="M316,672.3c-1.1,0-2.1-0.9-2.1-2.1c0-1.1,0.9-2.1,2.1-2.1s2.1,0.9,2.1,2.1C318.1,671.5,317.1,672.3,316,672.3"
	/>
<path class="st7" d="M203.5,672.3c-1.1,0-2.1-0.9-2.1-2.1c0-1.1,0.9-2.1,2.1-2.1c1.1,0,2.1,0.9,2.1,2.1
	C205.6,671.5,204.6,672.3,203.5,672.3"/>
<path class="st7" d="M147.2,683c-1.1,0-2.1-0.9-2.1-2.1c0-1.1,0.9-2.1,2.1-2.1c1.1,0,2.1,0.9,2.1,2.1
	C149.2,682.2,148.3,683,147.2,683"/>
<path class="st7" d="M119,685.2c-1.1,0-2.1-0.9-2.1-2.1s0.9-2.1,2.1-2.1s2.1,0.9,2.1,2.1S120.2,685.2,119,685.2"/>
<path class="st7" d="M203.5,687.3c-1.1,0-2.1-0.9-2.1-2.1c0-1.1,0.9-2.1,2.1-2.1c1.1,0,2.1,0.9,2.1,2.1
	C205.6,686.5,204.6,687.3,203.5,687.3"/>
<path class="st7" d="M119,689.4c-1.1,0-2.1-0.9-2.1-2.1c0-1.1,0.9-2.1,2.1-2.1s2.1,0.9,2.1,2.1S120.2,689.4,119,689.4"/>
<path class="st8" d="M316,85.2v27.9H91V85.2H316z"/>
<path class="st8" d="M316,145.3v32.1H91v-32.1C91,145.3,316,145.3,316,145.3z"/>
<path class="st8" d="M316,213.9v30H91v-30H316z"/>
<path class="st8" d="M316,282.5v30H91v-30H316z"/>
<path class="st8" d="M316,340.3V366H91v-25.7H316z"/>
<path class="st8" d="M316,396v25.7H91V396H316z"/>
<path class="st8" d="M316,451.8v25.7H91v-25.7H316z"/>
<path class="st8" d="M316,507.5v25.7H91v-25.7H316z"/>
<path class="st8" d="M316,563.2v25.7H91v-25.7H316z"/>
<path class="st8" d="M316,618.8v12.9H91v-12.9H316z"/>
<path class="st8" d="M316,659.5v25.7H91v-25.7H316z"/>
<g>
	<g transform="translate(1018,0)">
		<path pointer-events="none" class="st1" d="M-741.4,702.7h-33.8"/>
		<g>
			<g>
				<g transform="translate(0,16)">
					<g>
						<g>
							<g transform="translate(0,0)">
								<path pointer-events="none" class="st1" d="M-753.4,686.5h-9.4"/>
								<path pointer-events="none" class="st9" d="M-753.4,629.3"/>
							</g>
							<g transform="translate(0,16)">
								<path pointer-events="none" class="st1" d="M-765.4,670.5h-9.4"/>
								<path pointer-events="none" class="st9" d="M-765.4,613.3"/>
							</g>
						</g>
					</g>
					<path pointer-events="none" class="st9" d="M-753.4,629.3"/>
				</g>
			</g>
		</g>
		<path pointer-events="none" class="st9" d="M-741.4,645.3"/>
	</g>
</g>
<g>
	<g transform="translate(1018,53)">
		<g>
			<g>
				<g transform="translate(0,16)">
					<path pointer-events="none" class="st9" d="M-377.1,268.4"/>
				</g>
			</g>
		</g>
		<path pointer-events="none" class="st9" d="M-377.1,272.4"/>
	</g>
</g>
<g>
	<g transform="translate(500,-22)">
		<path pointer-events="none" class="st1" d="M-167.8,393.9L-167.8,393.9L-167.8,393.9L-167.8,393.9z"/>
		<path pointer-events="none" class="st9" d="M-167.8,393.9"/>
	</g>
</g>
<path class="st9" d="M-122.6,285.6"/>
<rect x="104.9" y="62" class="st1" width="28.2" height="10.7"/>
<text transform="matrix(1 0 0 1 109.8046 69.5124)" class="st10 st11 st12">1ST</text>
<rect x="134.3" y="62" class="st1" width="28.2" height="10.7"/>
<text transform="matrix(1 0 0 1 138.5819 69.5124)" class="st13 st11 st12">2ND</text>
<rect x="162.6" y="62" class="st1" width="28.2" height="10.7"/>
<text transform="matrix(1 0 0 1 166.7821 69.5124)" class="st14 st11 st12">3RD</text>
<rect x="190.7" y="62" class="st1" width="28.2" height="10.7"/>
<text transform="matrix(1 0 0 1 195.2929 69.5124)" class="st15 st11 st12">4TH</text>
<rect x="218.7" y="62" class="st1" width="28.2" height="10.7"/>
<text transform="matrix(1 0 0 1 223.4179 69.5124)" class="st15 st11 st12">5TH</text>
<rect x="88.8" y="97.1" class="st1" width="28.2" height="6.5"/>
<text transform="matrix(1 0 0 1 93.8104 102.322)" class="st16 st11 st17">2002</text>
<rect x="88.8" y="126.9" class="st1" width="28.2" height="6.5"/>
<text transform="matrix(1 0 0 1 93.8104 132.2331)" class="st16 st11 st17">2003</text>
<rect x="88.8" y="159.1" class="st1" width="28.2" height="6.5"/>
<text transform="matrix(1 0 0 1 93.8104 164.375)" class="st16 st11 st17">2004</text>
<rect x="88.8" y="193.4" class="st1" width="28.2" height="6.5"/>
<text transform="matrix(1 0 0 1 93.8104 198.6617)" class="st16 st11 st17">2005</text>
<rect x="88.8" y="225.6" class="st1" width="28.2" height="6.5"/>
<text transform="matrix(1 0 0 1 93.8104 230.9813)" class="st16 st11 st17">2006</text>
<rect x="88.8" y="259.9" class="st1" width="28.2" height="6.5"/>
<text transform="matrix(1 0 0 1 93.8104 265.2671)" class="st16 st11 st17">2007</text>
<rect x="88.8" y="294.2" class="st1" width="28.2" height="6.5"/>
<text transform="matrix(1 0 0 1 93.8104 299.5539)" class="st16 st11 st17">2008</text>
<rect x="88.8" y="323" class="st1" width="28.2" height="6.5"/>
<text transform="matrix(1 0 0 1 93.8104 328.344)" class="st16 st11 st17">2009</text>
<rect x="88.8" y="351" class="st1" width="28.2" height="6.5"/>
<text transform="matrix(1 0 0 1 93.8104 356.2891)" class="st16 st11 st17">2010</text>
<rect x="88.8" y="377.9" class="st1" width="28.2" height="6.5"/>
<text transform="matrix(1 0 0 1 93.8104 383.1252)" class="st16 st11 st17">2011</text>
<rect x="88.8" y="406.6" class="st1" width="28.2" height="6.5"/>
<text transform="matrix(1 0 0 1 93.8104 411.9145)" class="st16 st11 st17">2012</text>
<rect x="88.8" y="433.5" class="st1" width="28.2" height="6.5"/>
<text transform="matrix(1 0 0 1 93.8104 438.8395)" class="st16 st11 st17">2013</text>
<rect x="88.8" y="461.4" class="st1" width="28.2" height="6.5"/>
<text transform="matrix(1 0 0 1 93.8104 466.6957)" class="st16 st11 st17">2014</text>
<rect x="88.8" y="489.3" class="st1" width="28.2" height="6.5"/>
<text transform="matrix(1 0 0 1 93.8104 494.5527)" class="st16 st11 st17">2015</text>
<rect x="88.8" y="518.2" class="st1" width="28.2" height="6.5"/>
<text transform="matrix(1 0 0 1 93.8104 523.433)" class="st16 st11 st17">2016</text>
<rect x="88.8" y="545" class="st1" width="28.2" height="6.5"/>
<text transform="matrix(1 0 0 1 93.8104 550.2681)" class="st16 st11 st17">2017</text>
<rect x="88.8" y="572.8" class="st1" width="28.2" height="6.5"/>
<text transform="matrix(1 0 0 1 93.8104 578.0355)" class="st16 st11 st17">2018</text>
<rect x="88.8" y="601.7" class="st1" width="28.2" height="6.5"/>
<text transform="matrix(1 0 0 1 93.8104 606.9155)" class="st16 st11 st17">2019</text>
<rect x="88.8" y="623.3" class="st1" width="28.2" height="6.5"/>
<text transform="matrix(1 0 0 1 93.8104 628.5209)" class="st16 st11 st17">2020</text>
<rect x="88.8" y="643.3" class="st1" width="28.2" height="6.5"/>
<text transform="matrix(1 0 0 1 93.8104 648.6617)" class="st16 st11 st17">2021</text>
<rect x="88.8" y="669.2" class="st1" width="28.2" height="6.5"/>
<text transform="matrix(1 0 0 1 93.8104 674.4639)" class="st16 st11 st17">2022</text>
<rect x="88.8" y="689.4" class="st1" width="28.2" height="6.5"/>
<text transform="matrix(1 0 0 1 93.8104 694.7718)" class="st16 st11 st17">2023</text>
<rect x="28.3" y="57.3" class="st1" width="41.3" height="15.4"/>
<text transform="matrix(1 0 0 1 28.5067 62.6633)" class="st15 st11 st17">Champion of </text>
<text transform="matrix(1 0 0 1 35.0067 71.0633)" class="st15 st11 st17">the Year</text>
<image style="overflow:visible;enable-background:new    ;" width="311" height="311" xlink:href="Drivers/gronholm.png"  transform="matrix(8.624143e-02 0 0 8.624143e-02 54.5165 84.7651)">
</image>
<image style="overflow:visible;enable-background:new    ;" width="1646" height="1646" xlink:href="Drivers/Petter_Solberg.png"  transform="matrix(1.695439e-02 0 0 1.695439e-02 54.4241 116.2761)">
</image>
<image style="overflow:visible;enable-background:new    ;" width="912" height="912" xlink:href="Drivers/loeb.png"  transform="matrix(3.255970e-02 0 0 3.255970e-02 52.9874 147.5252)">
</image>
<image style="overflow:visible;enable-background:new    ;" width="912" height="912" xlink:href="Drivers/loeb.png"  transform="matrix(3.255970e-02 0 0 3.255970e-02 52.9874 179.8459)">
</image>
<image style="overflow:visible;enable-background:new    ;" width="912" height="912" xlink:href="Drivers/loeb.png"  transform="matrix(3.255970e-02 0 0 3.255970e-02 52.9874 214.0427)">
</image>
<image style="overflow:visible;enable-background:new    ;" width="912" height="912" xlink:href="Drivers/loeb.png"  transform="matrix(3.255970e-02 0 0 3.255970e-02 53.5303 248.4173)">
</image>
<image style="overflow:visible;enable-background:new    ;" width="912" height="912" xlink:href="Drivers/loeb.png"  transform="matrix(3.255970e-02 0 0 3.255970e-02 53.0798 282.7031)">
</image>
<image style="overflow:visible;enable-background:new    ;" width="912" height="912" xlink:href="Drivers/loeb.png"  transform="matrix(3.255970e-02 0 0 3.255970e-02 52.9874 312.5253)">
</image>
<image style="overflow:visible;enable-background:new    ;" width="912" height="912" xlink:href="Drivers/loeb.png"  transform="matrix(3.255970e-02 0 0 3.255970e-02 53.5303 340.5602)">
</image>
<image style="overflow:visible;enable-background:new    ;" width="912" height="912" xlink:href="Drivers/loeb.png"  transform="matrix(3.255970e-02 0 0 3.255970e-02 53.5303 366.2745)">
</image>
<image style="overflow:visible;enable-background:new    ;" width="912" height="912" xlink:href="Drivers/loeb.png"  transform="matrix(3.255970e-02 0 0 3.255970e-02 52.9874 394.0427)">
</image>
<image style="overflow:visible;enable-background:new    ;" width="1448" height="1448" xlink:href="Drivers/sebastien-ogier.png"  transform="matrix(1.834346e-02 0 0 1.834346e-02 54.6464 422.4361)">
</image>
<image style="overflow:visible;enable-background:new    ;" width="1448" height="1448" xlink:href="Drivers/sebastien-ogier.png"  transform="matrix(1.834346e-02 0 0 1.834346e-02 55.0969 449.0918)">
</image>
<image style="overflow:visible;enable-background:new    ;" width="1448" height="1448" xlink:href="Drivers/sebastien-ogier.png"  transform="matrix(1.834346e-02 0 0 1.834346e-02 54.554 479.0918)">
</image>
<image style="overflow:visible;enable-background:new    ;" width="1448" height="1448" xlink:href="Drivers/sebastien-ogier.png"  transform="matrix(1.834346e-02 0 0 1.834346e-02 55.0969 506.9489)">
</image>
<image style="overflow:visible;enable-background:new    ;" width="1448" height="1448" xlink:href="Drivers/sebastien-ogier.png"  transform="matrix(1.834346e-02 0 0 1.834346e-02 55.0969 534.806)">
</image>
<image style="overflow:visible;enable-background:new    ;" width="1448" height="1448" xlink:href="Drivers/sebastien-ogier.png"  transform="matrix(1.834346e-02 0 0 1.834346e-02 55.0969 560.6982)">
</image>
<image style="overflow:visible;enable-background:new    ;" width="1448" height="1448" xlink:href="Drivers/sebastien-ogier.png"  transform="matrix(1.834346e-02 0 0 1.834346e-02 54.554 611.949)">
</image>
<image style="overflow:visible;enable-background:new    ;" width="1448" height="1448" xlink:href="Drivers/sebastien-ogier.png"  transform="matrix(1.834346e-02 0 0 1.834346e-02 55.0969 633.3774)">
</image>
<image style="overflow:visible;enable-background:new    ;" width="426" height="425" xlink:href="Drivers/OTt.png"  transform="matrix(6.107606e-02 0 0 6.107606e-02 54.8255 588.5881)">
</image>
<image style="overflow:visible;enable-background:new    ;" width="446" height="446" xlink:href="Drivers/kalle-rovanpera.png"  transform="matrix(5.517568e-02 0 0 5.517568e-02 56.0734 660.1572)">
</image>
<rect x="86" y="85.2" class="st0" width="5" height="27.9"/>
<rect x="86" y="113.1" class="st0" width="5" height="32.4"/>
<rect x="86" y="145.1" class="st6" width="5" height="32.1"/>
<rect x="86" y="177.2" class="st6" width="5" height="36.8"/>
<rect x="86" y="213.9" class="st6" width="5" height="30"/>
<rect x="86" y="243.9" class="st6" width="5" height="38.8"/>
<rect x="86" y="280.4" class="st6" width="5" height="32.1"/>
<rect x="86" y="312.4" class="st6" width="5" height="28.2"/>
<rect x="86" y="340.2" class="st6" width="5" height="25.7"/>
<rect x="86" y="365" class="st6" width="5" height="31.1"/>
<rect x="86" y="395" class="st6" width="5" height="26.8"/>
<rect x="86" y="421.8" class="st7" width="5" height="29.9"/>
<rect x="86" y="451.6" class="st7" width="5" height="25.8"/>
<rect x="86" y="477.4" class="st7" width="5" height="30.1"/>
<rect x="86" y="506.5" class="st7" width="5" height="26.6"/>
<rect x="86" y="532.5" class="st7" width="5" height="30.7"/>
<rect x="86" y="561.5" class="st7" width="5" height="27.3"/>
<rect x="86" y="588.8" class="st0" width="5" height="30.1"/>
<rect x="86" y="618.3" class="st7" width="5" height="13.4"/>
<rect x="86" y="631.7" class="st7" width="5" height="27.9"/>
<rect x="86" y="659.5" class="st0" width="5" height="25.6"/>
<rect x="246.9" y="62" class="st1" width="28.2" height="10.7"/>
<text transform="matrix(1 0 0 1 251.5419 69.5124)" class="st15 st11 st12">6TH</text>
<rect x="275.1" y="62" class="st1" width="28.2" height="10.7"/>
<text transform="matrix(1 0 0 1 279.668 69.5124)" class="st15 st11 st12">7TH</text>
<rect x="71.7" y="57.3" class="st1" width="41.3" height="15.4"/>
<text transform="matrix(1 0 0 1 82.9345 62.6633)" class="st15 st11 st17">Stage </text>
<text transform="matrix(1 0 0 1 77.9345 71.0633)" class="st15 st11 st17">rankings</text>
<rect x="25.3" y="93.6" class="st1" width="29.2" height="11.2"/>
<text transform="matrix(1 0 0 1 31.245 97.3928)" class="st11 st18">Marcus </text>
<text transform="matrix(1 0 0 1 28.4452 103.3928)" class="st11 st18">Grnholm</text>
<rect x="25.3" y="124.6" class="st1" width="29.2" height="11.2"/>
<text transform="matrix(1 0 0 1 32.4305 128.4642)" class="st11 st18">Petter </text>
<text transform="matrix(1 0 0 1 30.8309 134.4642)" class="st11 st18">Solberg</text>
<rect x="25.3" y="159.9" class="st1" width="29.2" height="11.2"/>
<text transform="matrix(1 0 0 1 28.3192 163.772)" class="st11 st18">Sbastien </text>
<text transform="matrix(1 0 0 1 34.2196 169.772)" class="st11 st18">Loeb</text>
<rect x="25.3" y="191.1" class="st1" width="29.2" height="11.2"/>
<text transform="matrix(1 0 0 1 28.3192 194.9817)" class="st11 st18">Sbastien </text>
<text transform="matrix(1 0 0 1 34.2196 200.9817)" class="st11 st18">Loeb</text>
<rect x="25.3" y="225.2" class="st1" width="29.2" height="11.2"/>
<text transform="matrix(1 0 0 1 28.3192 229.0896)" class="st11 st18">Sbastien </text>
<text transform="matrix(1 0 0 1 34.2196 235.0896)" class="st11 st18">Loeb</text>
<rect x="25.3" y="257.6" class="st1" width="29.2" height="11.2"/>
<text transform="matrix(1 0 0 1 28.3192 261.4726)" class="st11 st18">Sbastien </text>
<text transform="matrix(1 0 0 1 34.2196 267.4726)" class="st11 st18">Loeb</text>
<rect x="25.3" y="290.9" class="st1" width="29.2" height="11.2"/>
<text transform="matrix(1 0 0 1 28.3192 294.6247)" class="st11 st18">Sbastien </text>
<text transform="matrix(1 0 0 1 34.2196 300.6247)" class="st11 st18">Loeb</text>
<rect x="25.3" y="324" class="st1" width="29.2" height="11.2"/>
<text transform="matrix(1 0 0 1 28.3192 327.8389)" class="st11 st18">Sbastien </text>
<text transform="matrix(1 0 0 1 34.2196 333.8389)" class="st11 st18">Loeb</text>
<rect x="25.3" y="349.8" class="st1" width="29.2" height="11.2"/>
<text transform="matrix(1 0 0 1 28.3192 353.5533)" class="st11 st18">Sbastien </text>
<text transform="matrix(1 0 0 1 34.2196 359.5533)" class="st11 st18">Loeb</text>
<rect x="25.3" y="377.5" class="st1" width="29.2" height="11.2"/>
<text transform="matrix(1 0 0 1 28.3192 381.2325)" class="st11 st18">Sbastien </text>
<text transform="matrix(1 0 0 1 34.2196 387.2325)" class="st11 st18">Loeb</text>
<rect x="25.3" y="404.3" class="st1" width="29.2" height="11.2"/>
<text transform="matrix(1 0 0 1 28.3192 408.0577)" class="st11 st18">Sbastien </text>
<text transform="matrix(1 0 0 1 34.2196 414.0577)" class="st11 st18">Loeb</text>
<rect x="25.3" y="433.2" class="st1" width="29.2" height="11.2"/>
<text transform="matrix(1 0 0 1 28.3192 436.9468)" class="st11 st18">Sbastien </text>
<text transform="matrix(1 0 0 1 33.619 442.9468)" class="st11 st18">Ogier</text>
<rect x="25.3" y="459" class="st1" width="29.2" height="11.2"/>
<text transform="matrix(1 0 0 1 28.3192 462.839)" class="st11 st18">Sbastien </text>
<text transform="matrix(1 0 0 1 33.619 468.839)" class="st11 st18">Ogier</text>
<rect x="25.3" y="488.9" class="st1" width="29.2" height="11.2"/>
<text transform="matrix(1 0 0 1 28.3192 492.6611)" class="st11 st18">Sbastien </text>
<text transform="matrix(1 0 0 1 33.619 498.6611)" class="st11 st18">Ogier</text>
<rect x="25.3" y="515.8" class="st1" width="29.2" height="11.2"/>
<text transform="matrix(1 0 0 1 28.3192 519.5752)" class="st11 st18">Sbastien </text>
<text transform="matrix(1 0 0 1 33.619 525.5752)" class="st11 st18">Ogier</text>
<rect x="25.3" y="542.7" class="st1" width="29.2" height="11.2"/>
<text transform="matrix(1 0 0 1 28.3192 546.4104)" class="st11 st18">Sbastien </text>
<text transform="matrix(1 0 0 1 33.619 552.4104)" class="st11 st18">Ogier</text>
<rect x="25.3" y="570.3" class="st1" width="29.2" height="11.2"/>
<text transform="matrix(1 0 0 1 28.3192 574.1786)" class="st11 st18">Sbastien </text>
<text transform="matrix(1 0 0 1 33.619 580.1786)" class="st11 st18">Ogier</text>
<rect x="25.3" y="619.7" class="st1" width="29.2" height="11.2"/>
<text transform="matrix(1 0 0 1 28.3192 623.4653)" class="st11 st18">Sbastien </text>
<text transform="matrix(1 0 0 1 33.619 629.4653)" class="st11 st18">Ogier</text>
<rect x="25.3" y="641" class="st1" width="29.2" height="11.2"/>
<text transform="matrix(1 0 0 1 28.3192 644.804)" class="st11 st18">Sbastien </text>
<text transform="matrix(1 0 0 1 33.619 650.804)" class="st11 st18">Ogier</text>
<rect x="25.3" y="601.5" class="st1" width="29.2" height="4.5"/>
<text transform="matrix(1 0 0 1 28.4325 605.2878)" class="st11 st18">Ott Tnak</text>
<rect x="25.3" y="666.8" class="st1" width="29.2" height="11.2"/>
<text transform="matrix(1 0 0 1 33.953 670.608)" class="st11 st18">Kalle </text>
<text transform="matrix(1 0 0 1 27.3534 676.608)" class="st11 st18">Rovanper</text>
<rect x="26.2" y="12" class="st1" width="360" height="31.1"/>
<text transform="matrix(1 0 0 1 27.6747 21.8207)" class="st11 st19">The Sbastiens reigned the World Rally Championships for </text>
<text transform="matrix(1 0 0 1 167.7743 37.4207)" class="st11 st19">two decades</text>
<rect x="32.7" y="43.8" class="st1" width="348.3" height="15.4"/>
<text transform="matrix(1 0 0 1 65.7919 48.3512)" class="st20 st21">Stage rankings of </text>
<text transform="matrix(1 0 0 1 114.0917 48.3512)" class="st6 st20 st21">Sbastien Loeb</text>
<text transform="matrix(1 0 0 1 154.8915 48.3512)" class="st20 st21"> and </text>
<text transform="matrix(1 0 0 1 167.9911 48.3512)" class="st7 st20 st21">Sbastien Ogier</text>
<text transform="matrix(1 0 0 1 209.6913 48.3512)" class="st20 st21"> in all World Rally Championship events since 2002</text>
<rect x="318.7" y="89.3" class="st1" width="65.4" height="35.6"/>
<text transform="matrix(1 0 0 1 320.8671 93.9326)" class="st20 st21">Loeb joined the WRC in </text>
<text transform="matrix(1 0 0 1 326.5673 101.1327)" class="st20 st21">2002. He took the </text>
<text transform="matrix(1 0 0 1 319.6669 108.3326)" class="st20 st21">second place during the </text>
<text transform="matrix(1 0 0 1 321.0673 115.5326)" class="st20 st21">season opening race in </text>
<text transform="matrix(1 0 0 1 334.5673 122.7327)" class="st20 st21">Monte-Carlo </text>
<rect x="318.7" y="144.6" class="st1" width="65.4" height="35.6"/>
<text transform="matrix(1 0 0 1 321.9374 149.0693)" class="st20 st21">Loeb secured the first </text>
<text transform="matrix(1 0 0 1 322.2372 156.2694)" class="st20 st21">champions title in his </text>
<text transform="matrix(1 0 0 1 319.6376 163.4693)" class="st20 st21">career in 2004 with six </text>
<text transform="matrix(1 0 0 1 320.537 170.6693)" class="st20 st21">wins and six runner-up </text>
<text transform="matrix(1 0 0 1 338.6376 177.8694)" class="st20 st21">positions.</text>
<rect x="301.7" y="62" class="st1" width="28.2" height="10.7"/>
<text transform="matrix(1 0 0 1 306.4227 69.5124)" class="st15 st11 st12">8TH</text>
<rect x="314" y="252.4" class="st1" width="65.4" height="28"/>
<text transform="matrix(1 0 0 1 315.3182 257.031)" class="st20 st21">Loeb won the most win </text>
<text transform="matrix(1 0 0 1 321.119 264.2311)" class="st20 st21">per season up until </text>
<text transform="matrix(1 0 0 1 317.2186 271.4311)" class="st20 st21">today, winning 11 out </text>
<text transform="matrix(1 0 0 1 316.8182 278.6311)" class="st20 st21">of 15 events in 2008. </text>
<rect x="315.6" y="286" class="st1" width="65.4" height="35.6"/>
<text transform="matrix(1 0 0 1 317.3514 290.498)" class="st20 st21">Ogier joined the WRC in </text>
<text transform="matrix(1 0 0 1 319.3514 297.698)" class="st20 st21">2008 after his win at </text>
<text transform="matrix(1 0 0 1 322.8514 304.8979)" class="st20 st21">the Junior WRC. He </text>
<text transform="matrix(1 0 0 1 318.4509 312.0979)" class="st20 st21">finished his first event </text>
<text transform="matrix(1 0 0 1 330.2518 319.298)" class="st20 st21">ranking 26th.</text>
<rect x="318.7" y="388.2" class="st1" width="65.4" height="43.3"/>
<text transform="matrix(1 0 0 1 324.9911 392.7449)" class="st20 st21">Loeb announced his </text>
<text transform="matrix(1 0 0 1 322.8915 399.9449)" class="st20 st21">partial-retirement by </text>
<text transform="matrix(1 0 0 1 323.9911 407.145)" class="st20 st21">the end of the 2012 </text>
<text transform="matrix(1 0 0 1 330.5907 414.3448)" class="st20 st21">season. He only </text>
<text transform="matrix(1 0 0 1 318.8915 421.5449)" class="st20 st21">participate in some WRC </text>
<text transform="matrix(1 0 0 1 325.4911 428.7449)" class="st20 st21">events since 2013.</text>
<rect x="318.7" y="337.5" class="st1" width="65.4" height="35.6"/>
<text transform="matrix(1 0 0 1 323.3594 342.1044)" class="st20 st21">Ogier earned his first </text>
<text transform="matrix(1 0 0 1 326.5596 349.3043)" class="st20 st21">event win in 2010 </text>
<text transform="matrix(1 0 0 1 331.4598 356.5044)" class="st20 st21">during Rally de </text>
<text transform="matrix(1 0 0 1 320.3594 363.7043)" class="st20 st21">Portugal. He finished in </text>
<text transform="matrix(1 0 0 1 337.9598 370.9043)" class="st20 st21">4th place.</text>
<rect x="318.5" y="440.6" class="st1" width="65.4" height="43.7"/>
<text transform="matrix(1 0 0 1 322.6825 445.2057)" class="st20 st21">Ogier started his new </text>
<text transform="matrix(1 0 0 1 329.0829 452.4058)" class="st20 st21">partnership with </text>
<text transform="matrix(1 0 0 1 322.6825 459.6058)" class="st20 st21">Volkswagen in 2013. </text>
<text transform="matrix(1 0 0 1 321.4823 466.8058)" class="st20 st21">He won his first World </text>
<text transform="matrix(1 0 0 1 318.5829 474.0057)" class="st20 st21">Champion title the same </text>
<text transform="matrix(1 0 0 1 344.5829 481.2058)" class="st20 st21">year.</text>
<rect x="318.5" y="575.7" class="st1" width="65.4" height="56.3"/>
<text transform="matrix(1 0 0 1 328.202 580.1497)" class="st20 st21">Ogier returned to </text>
<text transform="matrix(1 0 0 1 327.1024 587.3497)" class="st20 st21">Citroen during the </text>
<text transform="matrix(1 0 0 1 324.9022 594.5497)" class="st20 st21">2019 season. Their </text>
<text transform="matrix(1 0 0 1 326.9022 601.7496)" class="st20 st21">partnership ended </text>
<text transform="matrix(1 0 0 1 322.3016 608.9497)" class="st20 st21">unpleasantly. Ogier only </text>
<text transform="matrix(1 0 0 1 324.4022 616.1497)" class="st20 st21">finished as the third </text>
<text transform="matrix(1 0 0 1 323.1024 623.3497)" class="st20 st21">place. He left Citroen </text>
<text transform="matrix(1 0 0 1 324.6024 630.5497)" class="st20 st21">for Toyota in 2020.</text>
<rect x="318.5" y="635.7" class="st1" width="65.4" height="22.3"/>
<text transform="matrix(1 0 0 1 324.3348 640.2015)" class="st20 st21">Ogier announced his </text>
<text transform="matrix(1 0 0 1 323.2352 647.4015)" class="st20 st21">partial retirement by </text>
<text transform="matrix(1 0 0 1 328.2352 654.6016)" class="st20 st21">the end of 2021.</text>
</svg>
